<svg height="392" width="1250" xmlns="http://www.w3.org/2000/svg">
  <g fill="none" stroke="#1E2C38" stroke-width=".8" transform="translate(1 1)">
    <path
      d="M64.05 8.692a1.596 1.596 0 0 1 3.191 0v24.732a1.596 1.596 0 1 1-3.191 0V8.692zm22.339 0a1.596 1.596 0 0 1 3.19 0v24.732a1.596 1.596 0 1 1-3.19 0V8.692zm-22.34 109.3a1.596 1.596 0 1 1 3.192 0v24.733a1.596 1.596 0 1 1-3.191 0zm22.34 6.383a1.596 1.596 0 1 1 3.19 0v18.35a1.596 1.596 0 0 1-3.19 0zm57.442-61.432a1.596 1.596 0 0 1 0 3.192H119.1a1.596 1.596 0 0 1 0-3.192zm0 22.34a1.596 1.596 0 0 1 0 3.19H119.1a1.596 1.596 0 0 1 0-3.19zm-109.3-22.34a1.596 1.596 0 1 1 0 3.192H16.18a1.596 1.596 0 0 1 0-3.192zm0 22.34a1.596 1.596 0 0 1 0 3.19H9.798a1.596 1.596 0 1 1 0-3.19z"
      stroke-linecap="round" stroke-linejoin="round" stroke-opacity=".3"/>
    <path
      d="M69.438 142.338a1.596 1.596 0 0 1-.405 3.166c-10.106-1.296-17.677-.783-22.678 1.468-4.678 2.105-10.147 2.49-14.561.724-5.286-2.114-8.625-7.015-9.225-14.417a1.596 1.596 0 1 1 3.18-.258c.506 6.238 3.114 10.066 7.23 11.712 3.552 1.421 8.133 1.098 12.066-.672 5.637-2.536 13.756-3.087 24.393-1.723zM87.382 9.477a1.596 1.596 0 0 1 .406-3.165c10.106 1.295 17.677.782 22.678-1.469 4.678-2.105 10.146-2.49 14.56-.724 5.287 2.114 8.626 7.016 9.226 14.417a1.596 1.596 0 1 1-3.18.258c-.506-6.237-3.114-10.066-7.23-11.712-3.552-1.42-8.134-1.098-12.066.672-5.637 2.536-13.756 3.087-24.394 1.723zM10.477 65.433a1.596 1.596 0 0 1-3.165-.406c1.295-10.106.782-17.677-1.469-22.678-2.105-4.678-2.49-10.146-.724-14.56 2.114-5.287 7.016-8.626 14.417-9.226a1.596 1.596 0 1 1 .258 3.18c-6.237.506-10.066 3.115-11.712 7.23-1.42 3.553-1.098 8.134.672 12.067 2.536 5.636 3.087 13.756 1.723 24.393zm132.861 17.944a1.596 1.596 0 0 1 3.166.406c-1.296 10.105-.783 17.677 1.468 22.677 2.105 4.678 2.49 10.147.724 14.561-2.114 5.286-7.015 8.625-14.417 9.226a1.596 1.596 0 1 1-.258-3.181c6.238-.506 10.066-3.114 11.712-7.23 1.421-3.552 1.098-8.133-.672-12.066-2.536-5.637-3.087-13.756-1.723-24.393z"
      stroke-opacity=".3"/>
    <path
      d="M93.917 34.421a1.596 1.596 0 1 1-1.223 2.948 41.355 41.355 0 0 0-15.88-3.147c-22.911 0-41.486 18.574-41.486 41.486s18.575 41.487 41.487 41.487c22.912 0 41.486-18.574 41.486-41.487a41.35 41.35 0 0 0-3.147-15.879 41.379 41.379 0 0 0-3.84-7.17 1.596 1.596 0 0 1 2.653-1.774 44.57 44.57 0 0 1 4.135 7.722 44.546 44.546 0 0 1 3.39 17.101c0 24.675-20.002 44.678-44.677 44.678s-44.678-20.003-44.678-44.678S52.14 31.031 76.815 31.031a44.546 44.546 0 0 1 17.102 3.39zm14.49 9.696a1.596 1.596 0 0 1-2.257 2.256 41.698 41.698 0 0 0-6.287-5.165 1.596 1.596 0 0 1 1.776-2.652 44.889 44.889 0 0 1 6.768 5.56z"/>
    <path
      d="M76.815 145.916c-38.775 0-70.208-31.433-70.208-70.208 0-38.774 31.433-70.207 70.208-70.207 38.774 0 70.207 31.433 70.207 70.207 0 38.775-31.433 70.208-70.207 70.208zm0-3.191c37.012 0 67.016-30.004 67.016-67.017S113.827 8.692 76.815 8.692 9.798 38.696 9.798 75.708s30.005 67.017 67.017 67.017z"/>
    <path
      d="M231.576 45.3L297.5 87.403c.745-.477 1.736-.259 2.213.485s.259 1.734-.486 2.21a3.208 3.208 0 0 1-3.454 0L227.74 46.65a1.599 1.599 0 0 1 0-2.696l17.009-10.862a1.604 1.604 0 0 1 2.213.486 1.599 1.599 0 0 1-.487 2.21zm48.916-31.238a1.604 1.604 0 0 1-2.213-.486 1.599 1.599 0 0 1 .486-2.21L295.773.504a3.208 3.208 0 0 1 3.454 0l68.034 43.449a1.6 1.6 0 0 1 .487 2.21 1.604 1.604 0 0 1-2.214.486L297.5 3.2z"
      stroke-linecap="round" stroke-linejoin="round"/>
    <path
      d="M271 19.449a1.599 1.599 0 0 1-.486-2.21 1.604 1.604 0 0 1 2.213-.486l68.898 44c.745.476.963 1.465.486 2.21a1.604 1.604 0 0 1-2.213.486z"
      stroke-opacity=".3"/>
    <path
      d="M254.98 30.355a1.604 1.604 0 0 1-2.214-.486 1.599 1.599 0 0 1 .487-2.21l17.437-11.136a1.604 1.604 0 0 1 2.213.486 1.599 1.599 0 0 1-.486 2.21z"
      stroke-opacity=".3"/>
    <path
      d="M257.381 28.249a1.599 1.599 0 0 1-.487-2.21 1.604 1.604 0 0 1 2.214-.486l68.897 44c.746.476.964 1.465.487 2.21s-1.468.962-2.213.486z"
      stroke-opacity=".3"/>
    <path
      d="M230.205 48.223v58.602l65.693 41.953V90.177zm-.74-4.27l68.16 43.528a3.199 3.199 0 0 1 1.477 2.696v58.601a3.202 3.202 0 0 1-4.93 2.696l-65.694-41.953a3.199 3.199 0 0 1-1.478-2.696V45.3c0-1.264 1.399-2.03 2.466-1.348z"
      stroke-linecap="round" stroke-linejoin="round"/>
    <path
      d="M364.795 48.223v58.602l-65.693 41.953V90.177l20.792-13.278a1.599 1.599 0 0 0 .486-2.21 1.604 1.604 0 0 0-2.213-.486L297.376 87.48a3.199 3.199 0 0 0-1.478 2.696v58.601a3.202 3.202 0 0 0 4.93 2.696l65.694-41.953a3.199 3.199 0 0 0 1.478-2.696V45.3c0-1.264-1.399-2.03-2.466-1.348l-21.53 13.75a1.599 1.599 0 0 0-.487 2.21 1.604 1.604 0 0 0 2.213.486l19.065-12.176z"
      stroke-linecap="round" stroke-linejoin="round"/>
    <path
      d="M328.744 70.9a1.601 1.601 0 1 0-3.205 0v34.93c0 1.268 1.407 2.032 2.473 1.344l8.185-5.289c.743-.48.955-1.47.474-2.212s-1.472-.954-2.215-.474l-5.712 3.69zm10.415 26.13a1.6 1.6 0 0 0 1.602 1.6c.885 0 1.603-.716 1.603-1.6V62.1a1.602 1.602 0 0 0-3.205 0zm155.383 7.912a1.603 1.603 0 0 1 3.208 0c0 2.213 7.14 4.807 16.042 4.807s16.041-2.594 16.041-4.807a1.603 1.603 0 0 1 3.209 0c0 4.866-8.66 8.011-19.25 8.011s-19.25-3.145-19.25-8.011zm0 6.409a1.603 1.603 0 0 1 3.208 0c0 2.213 7.14 4.807 16.042 4.807s16.041-2.594 16.041-4.807a1.603 1.603 0 0 1 3.209 0c0 4.866-8.66 8.012-19.25 8.012s-19.25-3.146-19.25-8.012zm0 6.41a1.603 1.603 0 0 1 3.208 0c0 2.213 7.14 4.806 16.042 4.806s16.041-2.593 16.041-4.807a1.603 1.603 0 0 1 3.209 0c0 4.867-8.66 8.012-19.25 8.012s-19.25-3.145-19.25-8.012zm0 6.409a1.603 1.603 0 0 1 3.208 0c0 2.213 7.14 4.807 16.042 4.807s16.041-2.594 16.041-4.807a1.603 1.603 0 0 1 3.209 0c0 4.866-8.66 8.011-19.25 8.011s-19.25-3.145-19.25-8.011zm0 6.409a1.603 1.603 0 0 1 3.208 0c0 2.213 7.14 4.807 16.042 4.807s16.041-2.594 16.041-4.807a1.603 1.603 0 0 1 3.209 0c0 4.866-8.66 8.012-19.25 8.012s-19.25-3.146-19.25-8.012zm0 6.41a1.603 1.603 0 0 1 3.208 0c0 2.213 7.14 4.806 16.042 4.806s16.041-2.593 16.041-4.807a1.603 1.603 0 0 1 3.209 0c0 4.867-8.66 8.012-19.25 8.012s-19.25-3.145-19.25-8.012zm19.25-30.445c-10.59 0-19.25-3.146-19.25-8.012 0-4.866 8.66-8.012 19.25-8.012s19.25 3.146 19.25 8.012c0 4.866-8.66 8.012-19.25 8.012zm0-3.205c8.9 0 16.041-2.594 16.041-4.807 0-2.213-7.14-4.807-16.041-4.807s-16.042 2.594-16.042 4.807c0 2.213 7.14 4.807 16.042 4.807zm22.458 20.83a1.603 1.603 0 0 1 3.208 0c0 2.214 7.141 4.808 16.042 4.808s16.042-2.594 16.042-4.807a1.603 1.603 0 0 1 3.208 0c0 4.866-8.66 8.011-19.25 8.011s-19.25-3.145-19.25-8.011zm0 6.41a1.603 1.603 0 0 1 3.208 0c0 2.213 7.141 4.807 16.042 4.807s16.042-2.594 16.042-4.807a1.603 1.603 0 0 1 3.208 0c0 4.866-8.66 8.012-19.25 8.012s-19.25-3.146-19.25-8.012zm0 6.41a1.603 1.603 0 0 1 3.208 0c0 2.213 7.141 4.806 16.042 4.806s16.042-2.593 16.042-4.807a1.603 1.603 0 0 1 3.208 0c0 4.867-8.66 8.012-19.25 8.012s-19.25-3.145-19.25-8.012zm19.25-11.217c-10.59 0-19.25-3.145-19.25-8.012 0-4.866 8.66-8.011 19.25-8.011s19.25 3.145 19.25 8.011c0 4.867-8.66 8.012-19.25 8.012zm0-3.205c8.9 0 16.042-2.593 16.042-4.807 0-2.213-7.141-4.807-16.042-4.807s-16.042 2.594-16.042 4.807c0 2.214 7.141 4.807 16.042 4.807zm26.469-84.924V11.215l-117.104.78V22.9l112.227-4.484a1.603 1.603 0 0 1 1.668 1.602v17.625h3.209zm-6.417-15.958L463.325 26.17a1.603 1.603 0 0 1-1.669-1.6V10.403c0-.881.712-1.597 1.594-1.603L583.562 8a1.603 1.603 0 0 1 1.615 1.602v29.644c0 .885-.718 1.602-1.604 1.602h-6.417a1.603 1.603 0 0 1-1.604-1.602v-17.56z"
      stroke-opacity=".3"/>
    <path
      d="M458.448 32.436a1.603 1.603 0 0 1-3.208 0v-7.611c0-.86.68-1.567 1.54-1.601l120.312-4.808a1.603 1.603 0 0 1 1.668 1.602v19.228c0 .885-.718 1.602-1.604 1.602H456.844a1.603 1.603 0 1 1 0-3.205h118.708V21.685l-117.104 4.68z"
      stroke-opacity=".3"/>
    <path
      d="M453.234 40.305a1.601 1.601 0 0 1-1.203.543 6.413 6.413 0 0 1-6.416-6.41 1.603 1.603 0 0 1 3.208 0 3.207 3.207 0 0 0 3.208 3.205c.48 0 .91.21 1.203.543a1.601 1.601 0 0 1 1.204-.543h131.541c4.43 0 8.021 3.587 8.021 8.012v70.503c0 4.425-3.591 8.012-8.02 8.012h-4.813a1.603 1.603 0 1 1 0-3.205h4.812a4.81 4.81 0 0 0 4.813-4.807V45.655a4.81 4.81 0 0 0-4.813-4.807H454.437a1.6 1.6 0 0 1-1.203-.543zm34.891 80.66a1.603 1.603 0 1 1 0 3.205h-40.104c-4.43 0-8.021-3.587-8.021-8.012V39.246a1.603 1.603 0 0 1 3.208 0v76.912a4.81 4.81 0 0 0 4.813 4.807z"/>
    <path
      d="M443.208 39.246a1.603 1.603 0 0 1-3.208 0v-1.603c0-6.027 3.591-9.614 9.625-9.614a1.603 1.603 0 1 1 0 3.205c-4.262 0-6.417 2.152-6.417 6.41zm147.584-3.205a4.794 4.794 0 0 0-1.882-3.814 1.601 1.601 0 0 1-.294-2.247 1.605 1.605 0 0 1 2.25-.293A7.996 7.996 0 0 1 594 36.041v9.614c0 2.136-3.208 2.136-3.208 0a4.81 4.81 0 0 0-4.813-4.807H452.031a1.603 1.603 0 1 1 0-3.205H585.98c1.806 0 3.472.596 4.813 1.602v-3.204zm144.604 21.508h20.052a.802.802 0 0 0 .802-.802V32.681a.802.802 0 0 0-.802-.802h-20.052v25.67zm-1.604-28.879h21.656a4.01 4.01 0 0 1 4.01 4.011v24.066a4.01 4.01 0 0 1-4.01 4.011h-21.656a1.604 1.604 0 0 1-1.605-1.604v-28.88c0-.885.719-1.604 1.605-1.604zm-3.209 101.077a1.604 1.604 0 1 1 0-3.208 1.604 1.604 0 0 1 0 3.208zm6.417 0a1.604 1.604 0 1 1 0-3.208 1.604 1.604 0 0 1 0 3.208zM693.683 46.32h6.425a1.6 1.6 0 0 1 1.6 1.6v.008a1.6 1.6 0 0 1-1.6 1.6h-6.425a1.6 1.6 0 0 1-1.6-1.6v-.008a1.6 1.6 0 0 1 1.6-1.6zm0 11.23h6.425a1.6 1.6 0 0 1 1.6 1.6v.01a1.6 1.6 0 0 1-1.6 1.6h-6.425a1.6 1.6 0 0 1-1.6-1.6v-.01a1.6 1.6 0 0 1 1.6-1.6zm0 11.231h6.425a1.6 1.6 0 0 1 1.6 1.6v.009a1.6 1.6 0 0 1-1.6 1.6h-6.425a1.6 1.6 0 0 1-1.6-1.6v-.009a1.6 1.6 0 0 1 1.6-1.6zm12.834-22.461h6.425a1.6 1.6 0 0 1 1.6 1.6v.008a1.6 1.6 0 0 1-1.6 1.6h-6.425a1.6 1.6 0 0 1-1.6-1.6v-.008a1.6 1.6 0 0 1 1.6-1.6zm0 11.23h6.425a1.6 1.6 0 0 1 1.6 1.6v.01a1.6 1.6 0 0 1-1.6 1.6h-6.425a1.6 1.6 0 0 1-1.6-1.6v-.01a1.6 1.6 0 0 1 1.6-1.6zm0 11.231h6.425a1.6 1.6 0 0 1 1.6 1.6v.009a1.6 1.6 0 0 1-1.6 1.6h-6.425a1.6 1.6 0 0 1-1.6-1.6v-.009a1.6 1.6 0 0 1 1.6-1.6zM719.35 46.32h6.425a1.6 1.6 0 0 1 1.6 1.6v.008a1.6 1.6 0 0 1-1.6 1.6h-6.425a1.6 1.6 0 0 1-1.6-1.6v-.008a1.6 1.6 0 0 1 1.6-1.6zm0 11.23h6.425a1.6 1.6 0 0 1 1.6 1.6v.01a1.6 1.6 0 0 1-1.6 1.6h-6.425a1.6 1.6 0 0 1-1.6-1.6v-.01a1.6 1.6 0 0 1 1.6-1.6z"
      stroke-opacity=".3"/>
    <path
      d="M801.969 115.308a1.604 1.604 0 0 1 0 3.208h-25.564c-1.546 0-2.37-.159-3.229-.618a4.52 4.52 0 0 1-1.87-1.87c-.46-.86-.619-1.683-.619-3.23v-7.816c0-1.547.16-2.37.619-3.229a4.52 4.52 0 0 1 1.87-1.871c.859-.46 1.682-.618 3.229-.618h31.878c1.546 0 2.37.159 3.228.618a4.52 4.52 0 0 1 1.87 1.871c.46.859.619 1.682.619 3.229v7.817c0 1.546-.16 2.37-.618 3.228a4.52 4.52 0 0 1-1.871 1.871c-.858.46-1.682.618-3.228.618a1.604 1.604 0 0 1 0-3.208c1.062 0 1.385-.063 1.715-.24.243-.13.425-.31.555-.554.176-.33.239-.654.239-1.715v-7.817c0-1.062-.063-1.386-.24-1.716a1.312 1.312 0 0 0-.554-.555c-.33-.176-.653-.238-1.715-.238h-31.878c-1.062 0-1.385.062-1.715.238a1.31 1.31 0 0 0-.555.555c-.177.33-.24.654-.24 1.716v7.817c0 1.061.063 1.385.24 1.715.13.243.311.425.555.555.33.176.653.239 1.715.239zm4.01-4.011c0 .886-.538 1.604-1.203 1.604h-2.406c-.665 0-1.203-.718-1.203-1.604-.886 0-1.605-.629-1.605-1.404v-2.808c0-.775.719-1.404 1.605-1.404h4.812c.886 0 1.604.629 1.604 1.404v2.808c0 .775-.718 1.404-1.604 1.404z"/>
    <path
      d="M790.74 112.81c-.468-.22-.802-.815-.802-1.513-.886 0-1.605-.629-1.605-1.404v-2.808c0-.775.719-1.404 1.605-1.404h4.812c.886 0 1.604.629 1.604 1.404v2.808c0 .775-.718 1.404-1.604 1.404 0 .698-.335 1.293-.802 1.513v15.333c0 11.519-9.337 20.857-20.854 20.857h-23.26c-7.088 0-12.834-5.746-12.834-12.835a1.604 1.604 0 1 1 3.208 0c0 5.316 4.31 9.626 9.625 9.626h23.26c9.746 0 17.647-7.901 17.647-17.648z"
      stroke-opacity=".3"/>
    <path
      d="M672.833 118.516v-8.021a4.813 4.813 0 1 1 9.625 0v8.021h44.917a1.604 1.604 0 0 1 0 3.21h-57.75a6.417 6.417 0 0 0 0 12.835H737a6.417 6.417 0 1 0 0-12.835 1.604 1.604 0 0 1 0-3.21c5.316 0 9.625 4.31 9.625 9.627s-4.31 9.626-9.625 9.626h-67.375c-5.316 0-9.625-4.31-9.625-9.626s4.31-9.627 9.625-9.627zm3.209 0h3.208v-8.021a1.604 1.604 0 1 0-3.208 0z"/>
    <rect height="3.209" rx="1.6" stroke-opacity=".3" width="9.625" x="717.75" y="68.78"/>
    <path
      d="M779.51 112.81c-.467-.22-.802-.815-.802-1.513-.886 0-1.604-.629-1.604-1.404v-2.808c0-.775.718-1.404 1.604-1.404h4.813c.886 0 1.604.629 1.604 1.404v2.808c0 .775-.718 1.404-1.604 1.404 0 .698-.335 1.293-.802 1.513v8.915a8.021 8.021 0 0 1-8.021 8.022h-4.01a8.021 8.021 0 0 1-8.021-8.022V86.43c0-6.203-5.028-11.231-11.23-11.231h-17.645a1.604 1.604 0 0 1 0-3.209h17.645c7.974 0 14.438 6.465 14.438 14.44v35.296a4.813 4.813 0 0 0 4.812 4.813h4.01a4.813 4.813 0 0 0 4.813-4.813z"
      stroke-opacity=".3"/>
    <path
      d="M687.27 51.934a1.604 1.604 0 1 1-3.207 0V9.418A6.417 6.417 0 0 1 690.479 3h38.5a6.417 6.417 0 0 1 6.417 6.418V80.01a6.417 6.417 0 0 1-6.417 6.418h-38.5a6.417 6.417 0 0 1-6.416-6.418V64.769a1.604 1.604 0 1 1 3.208 0v15.242a3.209 3.209 0 0 0 3.208 3.209h38.5a3.209 3.209 0 0 0 3.209-3.209V9.418a3.209 3.209 0 0 0-3.209-3.21h-38.5a3.209 3.209 0 0 0-3.208 3.21zm6.418-39.308v24.066h32.083V12.626zm-.803-3.208h33.688a2.406 2.406 0 0 1 2.406 2.406v25.67a2.406 2.406 0 0 1-2.406 2.407h-33.688a2.406 2.406 0 0 1-2.406-2.406v-25.67a2.406 2.406 0 0 1 2.406-2.407zM33.688 328.25a1.6 1.6 0 0 1 1.604 1.597 1.6 1.6 0 0 1-1.605 1.597H5.718c-1.546 0-2.37-.158-3.228-.615a4.51 4.51 0 0 1-1.87-1.863c-.46-.854-.619-1.674-.619-3.214v-78.06c0-1.54.16-2.36.618-3.214a4.51 4.51 0 0 1 1.871-1.863c.858-.457 1.682-.615 3.228-.615H135.45c1.546 0 2.37.158 3.228.615a4.51 4.51 0 0 1 1.87 1.863c.46.855.619 1.675.619 3.214v75.766c0 .882-.719 1.598-1.605 1.598s-1.604-.716-1.604-1.598v-75.766c0-1.057-.062-1.379-.239-1.707a1.309 1.309 0 0 0-.554-.553c-.33-.175-.654-.238-1.715-.238H5.717c-1.062 0-1.385.063-1.715.238a1.31 1.31 0 0 0-.555.553c-.176.328-.239.65-.239 1.707v78.06c0 1.057.063 1.38.24 1.708.13.242.31.423.554.552.33.176.653.238 1.715.238z"/>
    <path
      d="M44.217 331.444c-1.062 0-1.385.063-1.715.238a1.31 1.31 0 0 0-.555.553c-.176.328-.239.65-.239 1.707v17.366c0 1.057.063 1.379.24 1.707.13.243.31.423.554.553.33.175.653.238 1.715.238h104.066c1.062 0 1.385-.063 1.715-.238.243-.13.425-.31.555-.553.176-.328.239-.65.239-1.707v-17.366c0-1.057-.063-1.379-.24-1.707a1.309 1.309 0 0 0-.554-.553c-.33-.175-.653-.238-1.715-.238zm0-3.194h104.066c1.546 0 2.37.158 3.228.615a4.51 4.51 0 0 1 1.87 1.863c.46.855.619 1.675.619 3.214v17.366c0 1.54-.16 2.36-.618 3.214a4.51 4.51 0 0 1-1.871 1.863c-.858.457-1.682.615-3.228.615H44.217c-1.546 0-2.37-.158-3.228-.615a4.51 4.51 0 0 1-1.87-1.863c-.46-.855-.619-1.675-.619-3.214v-17.366c0-1.54.16-2.36.618-3.214a4.51 4.51 0 0 1 1.871-1.863c.858-.457 1.682-.615 3.228-.615zm49.755 19.262l-1.957-1.341 2.791-3.386-4.17-1.023.834-2.236 3.978 1.566-.257-4.057h2.374l-.288 4.057 4.01-1.566.802 2.236-4.17 1.023 2.79 3.386-1.924 1.342-2.407-3.834zm19.25 0l-1.957-1.341 2.791-3.386-4.17-1.023.834-2.236 3.978 1.566-.257-4.057h2.374l-.288 4.057 4.01-1.566.802 2.236-4.17 1.023 2.79 3.386-1.924 1.342-2.407-3.834zm19.25 0l-1.957-1.341 2.791-3.386-4.17-1.023.834-2.236 3.978 1.566-.257-4.057h2.374l-.288 4.057 4.01-1.566.802 2.236-4.17 1.023 2.79 3.386-1.924 1.342-2.407-3.834zm-57.75 0l-1.957-1.341 2.791-3.386-4.17-1.023.834-2.236 3.978 1.566-.257-4.057h2.374l-.288 4.057 4.01-1.566.802 2.236-4.17 1.023 2.79 3.386-1.924 1.342-2.407-3.834zm-19.25 0l-1.957-1.341 2.791-3.386-4.17-1.023.834-2.236 3.978 1.566-.257-4.057h2.374l-.288 4.057 4.01-1.566.802 2.236-4.17 1.023 2.79 3.386-1.924 1.342-2.407-3.834zm-15.368-32.04a1.6 1.6 0 0 1 1.604 1.597 1.6 1.6 0 0 1-1.604 1.598H14.437a1.6 1.6 0 0 1-1.604-1.598 1.6 1.6 0 0 1 1.604-1.597zm64.167 0a1.6 1.6 0 0 1 1.604 1.597 1.6 1.6 0 0 1-1.604 1.598H52.938a1.6 1.6 0 0 1-1.605-1.598 1.6 1.6 0 0 1 1.605-1.597zm22.458 0a1.6 1.6 0 0 1 1.604 1.597 1.6 1.6 0 0 1-1.604 1.598h-9.625a1.6 1.6 0 0 1-1.604-1.598 1.6 1.6 0 0 1 1.604-1.597z"
      stroke-opacity=".3"/>
    <path
      d="M33.688 278.736a1.6 1.6 0 0 1-1.605-1.597 1.6 1.6 0 0 1 1.605-1.597h2.303c1.546 0 2.37.158 3.228.615a4.51 4.51 0 0 1 1.871 1.863c.46.854.618 1.675.618 3.214v10.976c0 1.54-.159 2.36-.618 3.215a4.51 4.51 0 0 1-1.87 1.862c-.859.457-1.683.616-3.229.616h-17.44c-1.547 0-2.37-.159-3.229-.616a4.51 4.51 0 0 1-1.87-1.862c-.46-.855-.619-1.675-.619-3.215v-10.976c0-1.54.16-2.36.618-3.214a4.51 4.51 0 0 1 1.871-1.863c.859-.457 1.682-.615 3.228-.615h8.72a1.6 1.6 0 0 1 1.605 1.597 1.6 1.6 0 0 1-1.604 1.597h-8.72c-1.062 0-1.386.062-1.716.238-.243.13-.424.31-.554.552-.177.329-.24.65-.24 1.708v10.976c0 1.058.063 1.38.24 1.708.13.242.311.423.554.552.33.176.654.238 1.715.238h17.441c1.062 0 1.385-.062 1.715-.238.244-.13.425-.31.555-.552.177-.328.239-.65.239-1.708v-10.976c0-1.057-.062-1.38-.239-1.708a1.309 1.309 0 0 0-.555-.552c-.33-.176-.653-.238-1.715-.238zm195.937-29.555a1.6 1.6 0 0 0 1.604-1.598c0-.882-.718-1.597-1.604-1.597s-1.604.715-1.604 1.597a1.6 1.6 0 0 0 1.604 1.598z"/>
    <path
      d="M236.042 249.18a1.6 1.6 0 0 0 1.604-1.597 1.6 1.6 0 0 0-1.604-1.597 1.6 1.6 0 0 0-1.605 1.597 1.6 1.6 0 0 0 1.605 1.598z"
      stroke-linecap="round" stroke-linejoin="round"/>
    <path
      d="M242.458 249.18a1.6 1.6 0 0 0 1.605-1.597 1.6 1.6 0 0 0-1.605-1.597 1.6 1.6 0 0 0-1.604 1.597 1.6 1.6 0 0 0 1.604 1.598z"/>
    <path
      d="M236.042 274.736a1.6 1.6 0 0 1-1.605-1.597 1.6 1.6 0 0 1 1.605-1.597h72.99a1.6 1.6 0 0 1 1.603 1.597 1.6 1.6 0 0 1-1.604 1.597zm0 25.556a1.6 1.6 0 0 1-1.605-1.598 1.6 1.6 0 0 1 1.605-1.597h60.156a1.6 1.6 0 0 1 1.604 1.597 1.6 1.6 0 0 1-1.604 1.598zm0 25.555c-.886 0-1.605-.715-1.605-1.597s.719-1.597 1.605-1.597h72.99c.885 0 1.603.715 1.603 1.597s-.718 1.597-1.604 1.597zm102.666-57.5c-2.658 0-4.812 2.146-4.812 4.792s2.154 4.792 4.812 4.792c2.658 0 4.813-2.146 4.813-4.792s-2.155-4.792-4.813-4.792zm0-3.194c4.43 0 8.021 3.575 8.021 7.986s-3.59 7.986-8.02 7.986-8.022-3.576-8.022-7.986 3.592-7.986 8.021-7.986zm0 54.305c-2.658 0-4.812 2.146-4.812 4.792s2.154 4.792 4.812 4.792c2.658 0 4.813-2.146 4.813-4.792s-2.155-4.792-4.813-4.792zm0-3.194c4.43 0 8.021 3.575 8.021 7.986s-3.59 7.986-8.02 7.986-8.022-3.575-8.022-7.986 3.592-7.986 8.021-7.986zm10.026 4.792a1.6 1.6 0 0 1-1.604-1.598 1.6 1.6 0 0 1 1.604-1.597h3.61c3.544 0 6.416 2.86 6.416 6.389s-2.872 6.389-6.416 6.389h-3.61a1.6 1.6 0 0 1-1.604-1.597 1.6 1.6 0 0 1 1.604-1.598h3.61c1.772 0 3.208-1.43 3.208-3.194s-1.436-3.194-3.208-3.194zm0-51.112a1.6 1.6 0 0 1-1.604-1.597 1.6 1.6 0 0 1 1.604-1.597h3.61c3.544 0 6.416 2.86 6.416 6.389s-2.872 6.389-6.416 6.389h-3.61a1.6 1.6 0 0 1-1.604-1.597 1.6 1.6 0 0 1 1.604-1.598h3.61c1.772 0 3.208-1.43 3.208-3.194s-1.436-3.195-3.208-3.195z"
      stroke-opacity=".3"/>
    <path
      d="M352.344 290.708c4.43 0 8.02 3.576 8.02 7.986 0 4.411-3.59 7.987-8.02 7.987s-8.021-3.576-8.021-7.987c0-4.41 3.591-7.986 8.02-7.986zm-10.828 4.792h-3.61c-1.772 0-3.208 1.43-3.208 3.194s1.436 3.195 3.208 3.195h3.61a1.6 1.6 0 0 1 1.604 1.597 1.6 1.6 0 0 1-1.604 1.597h-3.61c-3.544 0-6.416-2.86-6.416-6.389 0-3.528 2.872-6.388 6.416-6.388h3.61a1.6 1.6 0 0 1 1.604 1.597 1.6 1.6 0 0 1-1.604 1.597z"
      stroke-linecap="round" stroke-linejoin="round"/>
    <path
      d="M344.122 349.806a1.6 1.6 0 0 1 1.605 1.597 1.6 1.6 0 0 1-1.605 1.597h-9.424a1.6 1.6 0 0 1-1.604-1.597 1.6 1.6 0 0 1 1.604-1.597zm-28.273 0a1.6 1.6 0 0 1 1.604 1.597A1.6 1.6 0 0 1 315.85 353h-86.02c-2.85 0-4.247-.269-5.7-1.042a7.418 7.418 0 0 1-3.083-3.07c-.777-1.447-1.047-2.838-1.047-5.675v-95.426c0-2.837.27-4.228 1.047-5.675a7.418 7.418 0 0 1 3.083-3.07c1.453-.773 2.85-1.042 5.7-1.042h134.34c2.85 0 4.247.269 5.7 1.042a7.418 7.418 0 0 1 3.083 3.07c.777 1.447 1.047 2.838 1.047 5.675v95.426c0 2.837-.27 4.228-1.047 5.675a7.418 7.418 0 0 1-3.083 3.07c-1.453.773-2.85 1.042-5.7 1.042h-10.623a1.6 1.6 0 0 1-1.604-1.597 1.6 1.6 0 0 1 1.604-1.597h10.623c2.366 0 3.262-.173 4.187-.665a4.218 4.218 0 0 0 1.767-1.76c.494-.92.668-1.813.668-4.168v-95.426c0-2.355-.174-3.248-.668-4.168a4.218 4.218 0 0 0-1.767-1.76c-.925-.492-1.821-.665-4.187-.665H229.83c-2.366 0-3.262.173-4.187.665a4.218 4.218 0 0 0-1.767 1.76c-.494.92-.668 1.813-.668 4.168v95.426c0 2.355.174 3.248.668 4.168a4.218 4.218 0 0 0 1.767 1.76c.925.492 1.821.665 4.187.665zm349.267 22.003a1.6 1.6 0 0 0 1.604 1.595h25.667a1.6 1.6 0 0 0 1.604-1.595V228.19a1.6 1.6 0 0 0-1.604-1.595H666.72a1.6 1.6 0 0 0-1.604 1.595zm-3.209 0V228.19c0-2.643 2.155-4.787 4.813-4.787h25.667c2.657 0 4.812 2.144 4.812 4.787v143.62c0 2.643-2.155 4.787-4.812 4.787H666.72c-2.658 0-4.813-2.144-4.813-4.787z"/>
    <path
      d="M703.414 372.01a1.6 1.6 0 0 0 1.604 1.596h25.666a1.6 1.6 0 0 0 1.605-1.595v-67.022a1.6 1.6 0 0 0-1.605-1.595h-25.666a1.6 1.6 0 0 0-1.604 1.595zm-3.209 0v-67.02c0-2.645 2.155-4.788 4.813-4.788h25.666c2.658 0 4.813 2.143 4.813 4.787v67.022c0 2.644-2.155 4.787-4.813 4.787h-25.666c-2.658 0-4.813-2.143-4.813-4.787zm41.506.06a1.6 1.6 0 0 0 1.605 1.595h25.666a1.6 1.6 0 0 0 1.604-1.595v-44.681a1.6 1.6 0 0 0-1.604-1.596h-25.666a1.6 1.6 0 0 0-1.605 1.596zm-3.208 0v-44.681c0-2.644 2.155-4.787 4.813-4.787h25.666c2.658 0 4.813 2.143 4.813 4.787v44.68c0 2.645-2.155 4.788-4.813 4.788h-25.666c-2.658 0-4.813-2.143-4.813-4.787zm41.506.042a1.6 1.6 0 0 0 1.604 1.595h25.667a1.6 1.6 0 0 0 1.604-1.595v-28.724a1.6 1.6 0 0 0-1.604-1.595h-25.667a1.6 1.6 0 0 0-1.604 1.595zm-3.208 0v-28.724c0-2.644 2.155-4.787 4.812-4.787h25.667c2.658 0 4.813 2.143 4.813 4.787v28.724c0 2.644-2.155 4.787-4.813 4.787h-25.667c-2.657 0-4.812-2.143-4.812-4.787z"
      stroke-opacity=".3"/>
    <path
      d="M508.314 326.268c.882 0 1.598.718 1.598 1.605 0 .886-.716 1.605-1.598 1.605h-24.769a1.601 1.601 0 0 1-1.597-1.605 1.6 1.6 0 0 1 1.597-1.605zM591 308.61c0 11.525-9.3 20.867-20.772 20.867h-37.15a1.601 1.601 0 0 1-1.598-1.605 1.6 1.6 0 0 1 1.598-1.605h37.15c9.707 0 17.576-7.905 17.576-17.657 0-7.861-5.16-14.711-12.547-16.923a1.605 1.605 0 0 1-1.135-1.682c.067-.748.1-1.502.1-2.26 0-13.741-11.087-24.88-24.765-24.88-2.907 0-5.743.503-8.417 1.473a1.595 1.595 0 0 1-1.955-.758c-5.915-11.21-17.513-18.37-30.373-18.37-17.856 0-32.696 13.742-34.224 31.495a1.6 1.6 0 0 1-1.699 1.463 24.237 24.237 0 0 0-1.626-.054c-13.237 0-23.967 10.779-23.967 24.076s10.73 24.077 23.967 24.077h6.191a1.6 1.6 0 0 1 1.598 1.605c0 .886-.715 1.605-1.598 1.605h-6.191c-15.002 0-27.163-12.217-27.163-27.287 0-15.07 12.161-27.287 27.163-27.287l.303.002C473.831 256.24 489.708 242 508.712 242c13.593 0 25.898 7.321 32.54 18.885a27.84 27.84 0 0 1 8.205-1.229c15.442 0 27.961 12.576 27.961 28.09 0 .425-.009.85-.028 1.273 8.075 2.975 13.61 10.74 13.61 19.592z"/>
    <path
      d="M518.698 362.921v-50.297c0-.886.716-1.605 1.598-1.605s1.598.719 1.598 1.605v49.495l16.047-16.12c.624-.627 1.635-.627 2.26 0s.623 1.643 0 2.27l-19.174 19.26a1.593 1.593 0 0 1-2.26 0l-19.174-19.26a1.61 1.61 0 0 1 0-2.27 1.593 1.593 0 0 1 2.26 0z"
      stroke-opacity=".3"/>
    <g stroke-linecap="round" stroke-linejoin="round">
      <path
        d="M941.742 289.116c-1.33 0-2.409-1.073-2.409-2.396s1.079-2.397 2.41-2.397 2.409 1.073 2.409 2.397-1.08 2.396-2.41 2.396zm30.516 0c-1.33 0-2.41-1.073-2.41-2.396s1.08-2.397 2.41-2.397 2.409 1.073 2.409 2.397-1.079 2.396-2.41 2.396zm-28.106 27.558a1.602 1.602 0 0 1-1.607-1.598c0-.882.72-1.597 1.607-1.597h25.696c.887 0 1.607.715 1.607 1.597 0 .883-.72 1.598-1.607 1.598z"
        stroke-opacity=".3"/>
      <path
        d="M1006.123 267.549h-23.426c-3.548 0-6.424-2.861-6.424-6.39v-23.302l-.666-.662h-65.883c-1.063 0-1.387.062-1.717.238a1.31 1.31 0 0 0-.556.553c-.176.328-.239.65-.239 1.708v119.612c0 1.058.063 1.38.24 1.708.13.243.311.423.555.553.33.176.654.238 1.717.238h94.552c1.063 0 1.387-.062 1.717-.238.244-.13.425-.31.556-.553.176-.328.239-.65.239-1.708V347.75c0-.882.719-1.597 1.606-1.597s1.606.715 1.606 1.597v11.556c0 1.54-.16 2.36-.619 3.215-.43.8-1.07 1.436-1.873 1.863-.86.458-1.684.616-3.232.616h-94.552c-1.548 0-2.373-.158-3.232-.616a4.513 4.513 0 0 1-1.873-1.863c-.46-.855-.619-1.675-.619-3.215V239.694c0-1.54.16-2.36.619-3.215.43-.8 1.07-1.436 1.873-1.863.86-.458 1.684-.616 3.232-.616h66.549c.426 0 .834.168 1.135.468l32.122 31.951c.3.3.47.706.47 1.13v68.644c0 .882-.72 1.597-1.606 1.597s-1.606-.715-1.606-1.597V268.21zm-97.796-193.16a27.526 27.526 0 0 0-.535 5.404c0 20.149 22.094 36.693 49.535 36.693 6.46 0 12.746-.918 18.603-2.682a57.49 57.49 0 0 0 7.56-2.86 53.096 53.096 0 0 0 3.545-1.803 1.6 1.6 0 0 1 2.174.616c.43.77.154 1.741-.617 2.17a56.293 56.293 0 0 1-3.758 1.911 60.689 60.689 0 0 1-7.981 3.021c-6.158 1.854-12.755 2.818-19.526 2.818-29.039 0-52.73-17.74-52.73-39.884 0-2.446.29-4.864.862-7.232l-21.982-14.01a3.188 3.188 0 0 1 0-5.378l71.27-45.421a4.8 4.8 0 0 1 5.159 0l71.271 45.42a3.188 3.188 0 0 1 0 5.38l-21.982 14.009c.572 2.368.862 4.786.862 7.232 0 5.563-1.503 10.964-4.37 15.944a37.34 37.34 0 0 1-3.041 4.48 1.6 1.6 0 0 1-2.244.266 1.594 1.594 0 0 1-.267-2.24 34.15 34.15 0 0 0 2.78-4.097c2.595-4.504 3.946-9.36 3.946-14.353 0-1.822-.18-3.627-.535-5.404l-4.137 2.636a1.6 1.6 0 0 1-2.206-.486 1.594 1.594 0 0 1 .487-2.203l28.988-18.474-71.271-45.42a1.6 1.6 0 0 0-1.72 0l-71.27 45.42 35.635 22.71c.744.474.962 1.46.487 2.204s-1.463.96-2.207.486l-10.785-6.873zM984.63 84.43a1.595 1.595 0 1 1 1.72 2.69l-26.444 16.851a4.8 4.8 0 0 1-5.158 0L936.93 92.617c-.744-.474-.962-1.46-.487-2.203s1.463-.96 2.206-.486l17.818 11.355a1.6 1.6 0 0 0 1.72 0z"/>
      <path
        d="M986.089 128.452a1.597 1.597 0 0 1 3.196 0v12.763c0 .88-.716 1.595-1.598 1.595a1.597 1.597 0 0 1-1.598-1.595zm4.793 1.595c0-.881.716-1.595 1.598-1.595.883 0 1.598.714 1.598 1.595v12.763c0 .881-.715 1.595-1.598 1.595a1.597 1.597 0 0 1-1.598-1.595zm4.794 0c0-.881.715-1.595 1.598-1.595s1.598.714 1.598 1.595v12.763c0 .881-.716 1.595-1.598 1.595s-1.598-.714-1.598-1.595zm4.794-1.595a1.597 1.597 0 0 1 3.195 0v12.763a1.597 1.597 0 1 1-3.196 0zm-7.19-47.632l-36.817-23.616c-.742-.476-.958-1.463-.48-2.204s1.465-.956 2.208-.48l37.55 24.087c.457.293.734.8.734 1.342v37.335c0 .881-.715 1.595-1.598 1.595a1.597 1.597 0 0 1-1.598-1.595zm6.06 42.378c-.624-.623-.624-1.633 0-2.256s1.636-.623 2.26 0c1.67 1.667 3.068 3.343 4.194 5.03.49.732.291 1.723-.443 2.212-3.447 2.294-6.946 3.458-10.474 3.458-3.528 0-7.027-1.164-10.474-3.458a1.594 1.594 0 0 1-.443-2.213c1.126-1.686 2.525-3.362 4.195-5.029 1.653-1.651 3.575-3.295 5.763-4.934a1.6 1.6 0 0 1 2.237.319c.53.705.387 1.705-.32 2.233-2.071 1.552-3.879 3.099-5.42 4.638a32.538 32.538 0 0 0-2.828 3.196c2.46 1.379 4.885 2.058 7.29 2.058 2.405 0 4.83-.68 7.29-2.058a32.537 32.537 0 0 0-2.827-3.196zm-90.664-16.81c-.427-.77-.147-1.742.625-2.168s1.745-.147 2.172.624c2.459 4.441 6.086 8.492 10.657 11.914 9.243 6.922 21.789 10.896 35.197 10.896 6.643 0 13.102-.971 19.097-2.833a1.595 1.595 0 1 1 .949 3.047c-6.304 1.957-13.082 2.977-20.046 2.977-14.084 0-27.304-4.187-37.115-11.534-4.921-3.685-8.851-8.074-11.536-12.923zm97.302 0a1.6 1.6 0 0 1-2.172.624 1.594 1.594 0 0 1-.625-2.168 29.76 29.76 0 0 0 2.76-6.818 1.598 1.598 0 0 1 3.09.814 32.945 32.945 0 0 1-3.053 7.548z"
        stroke-opacity=".3"/>
      <path
        d="M1194.622 260.596a1.6 1.6 0 0 1-1.223 2.955 41.35 41.35 0 0 0-15.899-3.155c-22.94 0-41.537 18.625-41.537 41.6s18.597 41.6 41.537 41.6 41.537-18.625 41.537-41.6a41.53 41.53 0 0 0-3.151-15.923 41.513 41.513 0 0 0-3.844-7.189 1.602 1.602 0 0 1 .439-2.22 1.596 1.596 0 0 1 2.216.44 44.715 44.715 0 0 1 4.14 7.743 44.727 44.727 0 0 1 3.395 17.149c0 24.742-20.027 44.8-44.732 44.8s-44.732-20.058-44.732-44.8 20.027-44.8 44.732-44.8c5.95 0 11.741 1.165 17.122 3.4zm14.508 9.721a1.602 1.602 0 0 1 0 2.263 1.596 1.596 0 0 1-2.26 0 41.761 41.761 0 0 0-6.294-5.179 1.602 1.602 0 0 1-.438-2.22 1.596 1.596 0 0 1 2.216-.439 44.957 44.957 0 0 1 6.776 5.575z"/>
      <path
        d="M1199.136 288.064c.623-.624 1.635-.624 2.259 0s.624 1.638 0 2.263l-29.156 29.2a1.596 1.596 0 0 1-2.259 0l-12.78-12.8a1.602 1.602 0 0 1 0-2.263 1.596 1.596 0 0 1 2.259 0l11.65 11.669z"/>
      <path
        d="M1200.555 349.942l-7.4 15.152a1.596 1.596 0 0 1-2.424.554l-13.231-10.436-13.231 10.436c-.8.63-1.977.362-2.424-.554l-7.4-15.152-4.104.912v35.06l26.5-12.031c.419-.19.9-.19 1.319 0l26.499 12.03v-35.059zm-2.318-2.538a1.597 1.597 0 0 1 1.781-.859l6.584 1.463a1.6 1.6 0 0 1 1.252 1.562v38.826c0 1.163-1.2 1.937-2.258 1.457l-28.096-12.757-28.096 12.757a1.598 1.598 0 0 1-2.258-1.457V349.57c0-.75.52-1.4 1.252-1.562l6.584-1.463c.72-.16 1.456.195 1.78.86l7.084 14.503 12.666-9.99a1.596 1.596 0 0 1 1.976 0l12.666 9.99z"
        stroke-opacity=".3"/>
      <path
        d="M1163.846 361.908l12.666-9.99a1.596 1.596 0 0 1 1.976 0l12.666 9.99 7.083-14.504a1.597 1.597 0 0 1 1.781-.859l15.74 3.497.098-16.146a1.6 1.6 0 0 1 1.232-1.548l15.695-3.689-6.906-14.59a1.602 1.602 0 0 1 .44-1.93l12.543-10.143-12.543-10.144a1.602 1.602 0 0 1-.44-1.93l6.906-14.59-15.695-3.689a1.6 1.6 0 0 1-1.232-1.548l-.099-16.145-15.739 3.496a1.597 1.597 0 0 1-1.78-.859l-7.084-14.504-12.666 9.99a1.596 1.596 0 0 1-1.976 0l-12.666-9.99-7.083 14.504a1.597 1.597 0 0 1-1.781.86l-15.74-3.497-.098 16.145a1.6 1.6 0 0 1-1.232 1.548l-15.695 3.69 6.906 14.589a1.602 1.602 0 0 1-.44 1.93l-12.543 10.144 12.543 10.144c.574.464.756 1.262.44 1.93l-6.906 14.59 15.695 3.688a1.6 1.6 0 0 1 1.232 1.548l.099 16.146 15.739-3.497c.72-.16 1.456.195 1.78.86zm.423 3.74c-.8.63-1.977.362-2.424-.554l-7.4-15.152-16.442 3.653a1.598 1.598 0 0 1-1.943-1.552l-.103-16.867-16.396-3.854a1.6 1.6 0 0 1-1.079-2.243l7.215-15.241-13.103-10.597a1.602 1.602 0 0 1 0-2.49l13.103-10.597-7.215-15.241a1.6 1.6 0 0 1 1.079-2.243l16.396-3.854.103-16.867a1.598 1.598 0 0 1 1.943-1.552l16.442 3.652 7.4-15.152a1.596 1.596 0 0 1 2.424-.554l13.231 10.436 13.231-10.436c.8-.63 1.977-.361 2.424.554l7.4 15.152 16.442-3.652a1.598 1.598 0 0 1 1.943 1.552l.103 16.867 16.396 3.854a1.6 1.6 0 0 1 1.079 2.243l-7.215 15.24 13.103 10.598c.792.64.792 1.85 0 2.49l-13.103 10.597 7.215 15.24a1.6 1.6 0 0 1-1.079 2.244l-16.396 3.854-.103 16.867a1.598 1.598 0 0 1-1.943 1.552l-16.442-3.653-7.4 15.152a1.596 1.596 0 0 1-2.424.554l-13.231-10.436zm-38.74-343.625c-1.061 0-1.384.062-1.714.238a1.31 1.31 0 0 0-.554.554c-.176.33-.238.653-.238 1.713V35.54c0 1.06.062 1.383.238 1.713.13.243.311.424.554.554.33.176.653.238 1.713.238h103.943c1.061 0 1.384-.062 1.714-.238a1.31 1.31 0 0 0 .554-.554c.176-.33.238-.653.238-1.713V24.528c0-1.06-.062-1.383-.238-1.713a1.31 1.31 0 0 0-.554-.554c-.33-.176-.653-.238-1.713-.238zm0-3.205h103.942c1.545 0 2.367.16 3.225.618a4.514 4.514 0 0 1 1.868 1.868c.459.858.618 1.68.618 3.224V35.54c0 1.544-.16 2.367-.618 3.224a4.514 4.514 0 0 1-1.868 1.869c-.858.458-1.68.617-3.224.617h-103.944c-1.544 0-2.366-.159-3.224-.617a4.514 4.514 0 0 1-1.868-1.869c-.459-.857-.618-1.68-.618-3.224V24.528c0-1.544.16-2.366.618-3.224a4.514 4.514 0 0 1 1.868-1.868c.858-.459 1.68-.618 3.224-.618zm5.505 12.818a1.602 1.602 0 1 1 0-3.204 1.602 1.602 0 0 1 0 3.204zm12.818 0a1.602 1.602 0 1 1 0-3.204 1.602 1.602 0 0 1 0 3.204zm62.489 1.603a1.602 1.602 0 1 1-3.205 0v-6.41a1.602 1.602 0 0 1 3.205 0zm-6.41 0a1.602 1.602 0 1 1-3.204 0v-6.41a1.602 1.602 0 0 1 3.205 0zm-6.408 0a1.602 1.602 0 0 1-3.205 0v-6.41a1.602 1.602 0 1 1 3.205 0zm19.227 0a1.602 1.602 0 1 1-3.205 0v-6.41a1.602 1.602 0 0 1 3.205 0zm6.41 0a1.602 1.602 0 1 1-3.205 0v-6.41a1.602 1.602 0 1 1 3.204 0zm6.408 0a1.602 1.602 0 1 1-3.204 0v-6.41a1.602 1.602 0 1 1 3.204 0z"
        stroke-opacity=".3"/>
      <circle cx="1137.443" cy="30.034" r="1.602" stroke-opacity=".3"/>
      <path
        d="M1214.352 63.682a1.602 1.602 0 1 1 0 3.204h-88.823c-1.545 0-2.367-.159-3.225-.617a4.514 4.514 0 0 1-1.868-1.869c-.459-.857-.618-1.68-.618-3.224V50.165c0-1.544.16-2.367.618-3.224a4.514 4.514 0 0 1 1.868-1.87c.858-.458 1.68-.616 3.224-.616h103.944c1.544 0 2.366.158 3.224.617a4.514 4.514 0 0 1 1.868 1.869c.459.857.618 1.68.618 3.224v7.108a1.602 1.602 0 1 1-3.205 0v-7.108c0-1.06-.062-1.384-.238-1.713a1.31 1.31 0 0 0-.554-.554c-.33-.177-.653-.239-1.714-.239h-103.943c-1.06 0-1.383.062-1.713.239a1.31 1.31 0 0 0-.554.554c-.176.33-.238.652-.238 1.713v11.011c0 1.06.062 1.383.238 1.713.13.243.311.424.554.554.33.176.653.239 1.713.239h88.824zm-83.318-6.41a1.602 1.602 0 1 1 0-3.204 1.602 1.602 0 0 1 0 3.205zm6.41 0a1.602 1.602 0 1 1 0-3.204 1.602 1.602 0 0 1 0 3.205zm68.897 1.603a1.602 1.602 0 1 1-3.205 0v-6.41a1.602 1.602 0 0 1 3.205 0zm-6.41 0a1.602 1.602 0 1 1-3.204 0v-6.41a1.602 1.602 0 1 1 3.205 0zm-6.408 0a1.602 1.602 0 0 1-3.205 0v-6.41a1.602 1.602 0 1 1 3.205 0zm19.227 0a1.602 1.602 0 1 1-3.205 0v-6.41a1.602 1.602 0 0 1 3.205 0zm6.41 0a1.602 1.602 0 1 1-3.205 0v-6.41a1.602 1.602 0 1 1 3.204 0zm6.408 0a1.602 1.602 0 1 1-3.204 0v-6.41a1.602 1.602 0 1 1 3.204 0zm-100.04 40.057c-1.06 0-1.383.062-1.713.238a1.31 1.31 0 0 0-.554.555c-.176.33-.238.652-.238 1.713v11.01c0 1.061.062 1.384.238 1.714.13.243.311.424.554.554.33.176.653.239 1.713.239h103.944c1.06 0 1.383-.063 1.713-.24a1.31 1.31 0 0 0 .554-.553c.176-.33.238-.653.238-1.713v-11.011c0-1.06-.062-1.384-.238-1.713a1.31 1.31 0 0 0-.554-.555c-.33-.176-.653-.238-1.713-.238zm0-3.205h103.944c1.544 0 2.366.16 3.224.618a4.514 4.514 0 0 1 1.868 1.868c.459.858.618 1.68.618 3.225v11.01c0 1.545-.16 2.368-.618 3.225a4.514 4.514 0 0 1-1.868 1.869c-.858.458-1.68.617-3.224.617h-103.943c-1.545 0-2.367-.159-3.225-.617a4.514 4.514 0 0 1-1.868-1.869c-.459-.857-.618-1.68-.618-3.224v-11.011c0-1.545.16-2.367.618-3.225a4.514 4.514 0 0 1 1.868-1.868c.858-.459 1.68-.618 3.224-.618zm5.506 12.818a1.602 1.602 0 1 1 0-3.204 1.602 1.602 0 0 1 0 3.204zm75.307 1.603a1.602 1.602 0 1 1-3.205 0v-6.41a1.602 1.602 0 0 1 3.205 0zm-6.41 0a1.602 1.602 0 1 1-3.204 0v-6.41a1.602 1.602 0 0 1 3.205 0zm-6.408 0a1.602 1.602 0 0 1-3.205 0v-6.41a1.602 1.602 0 1 1 3.205 0zm19.227 0a1.602 1.602 0 1 1-3.205 0v-6.41a1.602 1.602 0 0 1 3.205 0zm6.41 0a1.602 1.602 0 1 1-3.205 0v-6.41a1.602 1.602 0 1 1 3.204 0zm6.408 0a1.602 1.602 0 1 1-3.204 0v-6.41a1.602 1.602 0 1 1 3.204 0z"
        stroke-opacity=".3"/>
      <path
        d="M1143.852 108.545a1.602 1.602 0 1 1 0-3.204 1.602 1.602 0 0 1 0 3.204zm-6.409 0a1.602 1.602 0 1 1 0-3.204 1.602 1.602 0 0 1 0 3.204z"
        stroke-opacity=".3"/>
      <circle cx="1143.852" cy="55.67" r="1.602" stroke-opacity=".3"/>
      <path
        d="M1112.71 9.205c-1.06 0-1.383.062-1.713.238a1.31 1.31 0 0 0-.554.554c-.176.33-.238.653-.238 1.713v129.58c0 1.06.062 1.383.238 1.713.13.243.311.424.554.554.33.176.653.238 1.713.238h129.58c1.06 0 1.383-.062 1.713-.238a1.31 1.31 0 0 0 .554-.554c.176-.33.238-.653.238-1.713V11.71c0-1.06-.062-1.383-.238-1.713a1.31 1.31 0 0 0-.554-.554c-.33-.176-.653-.238-1.713-.238zm0-3.205h129.58c1.544 0 2.367.159 3.224.617a4.514 4.514 0 0 1 1.869 1.869c.458.857.617 1.68.617 3.224v129.58c0 1.544-.159 2.367-.617 3.224a4.514 4.514 0 0 1-1.869 1.869c-.857.458-1.68.617-3.224.617h-129.58c-1.544 0-2.367-.159-3.224-.617a4.514 4.514 0 0 1-1.869-1.869c-.458-.857-.617-1.68-.617-3.224V11.71c0-1.544.159-2.367.617-3.224a4.514 4.514 0 0 1 1.869-1.869c.857-.458 1.68-.617 3.224-.617zm119.267 87.324a1.602 1.602 0 0 1 3.205 0v35.148c0 1.544-.16 2.366-.618 3.224a4.514 4.514 0 0 1-1.868 1.868c-.858.459-1.68.618-3.224.618h-103.943c-1.545 0-2.367-.16-3.225-.618a4.514 4.514 0 0 1-1.868-1.868c-.459-.858-.618-1.68-.618-3.224V24.528c0-1.544.16-2.366.618-3.224a4.514 4.514 0 0 1 1.868-1.868c.858-.459 1.68-.618 3.224-.618h103.944c1.544 0 2.366.16 3.224.618a4.514 4.514 0 0 1 1.868 1.868c.459.858.618 1.68.618 3.224v35.148a1.602 1.602 0 1 1-3.205 0V24.528c0-1.06-.062-1.383-.238-1.713a1.31 1.31 0 0 0-.554-.554c-.33-.176-.653-.238-1.714-.238h-103.943c-1.06 0-1.383.062-1.713.238a1.31 1.31 0 0 0-.554.554c-.176.33-.238.653-.238 1.713v103.944c0 1.06.062 1.383.238 1.713.13.243.311.424.554.554.33.176.653.238 1.713.238h103.943c1.061 0 1.384-.062 1.714-.238a1.31 1.31 0 0 0 .554-.554c.176-.33.238-.653.238-1.713z"/>
      <path
        d="M1220.363 70.356a10.36 10.36 0 0 0-1.883 4.542h3.261c.183-.805.5-1.559.927-2.237zm2.266-2.266l2.305 2.305a7.168 7.168 0 0 1 2.236-.927v-3.26c-1.68.26-3.228.92-4.541 1.882zm14.554 14.554a10.36 10.36 0 0 0 1.882-4.542h-3.26a7.168 7.168 0 0 1-.928 2.237zm-2.266 2.266l-2.306-2.305a7.168 7.168 0 0 1-2.236.927v3.26a10.36 10.36 0 0 0 4.542-1.882zm-14.554-2.266l2.305-2.305a7.168 7.168 0 0 1-.927-2.237h-3.26c.259 1.68.92 3.228 1.882 4.542zm2.266 2.266a10.36 10.36 0 0 0 4.541 1.882v-3.26a7.168 7.168 0 0 1-2.236-.927zm14.554-14.554l-2.306 2.305a7.16 7.16 0 0 1 .927 2.237h3.261a10.36 10.36 0 0 0-1.882-4.542zm-2.266-2.266a10.36 10.36 0 0 0-4.542-1.882v3.26c.805.183 1.559.5 2.236.927zm-6.144 22.03c-7.522 0-13.62-6.098-13.62-13.62s6.098-13.62 13.62-13.62 13.62 6.098 13.62 13.62-6.099 13.62-13.62 13.62zm0-9.614a4.006 4.006 0 1 0 0-8.012 4.006 4.006 0 0 0 0 8.012z"/>
    </g>
  </g>
</svg>
