<svg xmlns="http://www.w3.org/2000/svg" xmlns:xlink="http://www.w3.org/1999/xlink" viewBox="0 0 25 6.09"><defs><style>.a{isolation:isolate;}.b{mix-blend-mode:multiply;}.c{fill:url(#a);}.d{fill:url(#b);}.e{fill:url(#c);}.f{fill:url(#d);}.g{fill:url(#e);}.h{fill:url(#f);}.i{fill:url(#g);}.j{fill:url(#h);}.k{fill:url(#i);}.l{fill:url(#j);}.m{fill:url(#k);}.n{fill:url(#l);}.o{fill:url(#m);}.p{fill:url(#n);}.q{fill:url(#o);}.r{fill:url(#p);}.s{fill:url(#q);}.t{fill:url(#r);}.u{fill:url(#s);}.v{fill:url(#t);}.w{fill:url(#u);}.x{fill:url(#v);}.y{fill:url(#w);}.z{fill:url(#x);}.aa{fill:url(#y);}.ab{fill:url(#z);}.ac{fill:url(#aa);}.ad{fill:url(#ab);}.ae{fill:url(#ac);}.af{fill:url(#ad);}.ag{fill:url(#ae);}.ah{fill:url(#af);}.ai{fill:url(#ag);}.aj{fill:url(#ah);}.ak{fill:url(#ai);}.al{fill:url(#aj);}.am{fill:url(#ak);}.an{fill:url(#al);}.ao{fill:url(#am);}.ap{fill:url(#an);}.aq{fill:url(#ao);}.ar{fill:url(#ap);}.as{fill:url(#aq);}</style><linearGradient id="a" x1="-92.36" y1="67.55" x2="-92.34" y2="67.53" gradientTransform="matrix(-120, 0, 0, 51, -11077.98, -3443.18)" gradientUnits="userSpaceOnUse"><stop offset="0" stop-color="#ffa896"/><stop offset="1" stop-color="#ffaf9a"/></linearGradient><linearGradient id="b" x1="-92.08" y1="87.83" x2="-92.06" y2="87.81" gradientTransform="matrix(-171, 0, 0, 215, -15744.83, -18881.73)" gradientUnits="userSpaceOnUse"><stop offset="0" stop-color="#cd3d4f"/><stop offset="1" stop-color="#a52435"/></linearGradient><linearGradient id="c" x1="-87.61" y1="80.97" x2="-87.59" y2="80.95" gradientTransform="matrix(-177, 0, 0, 121, -15489.96, -9791.06)" gradientUnits="userSpaceOnUse"><stop offset="0" stop-color="#951c2d"/><stop offset="1" stop-color="#7f1022"/></linearGradient><linearGradient id="d" x1="-88.27" y1="81.28" x2="-88.25" y2="81.26" gradientTransform="matrix(-79, 0, 0, 124, -6954.92, -10073.37)" gradientUnits="userSpaceOnUse"><stop offset="0" stop-color="#891527"/><stop offset="1" stop-color="#871425"/></linearGradient><linearGradient id="e" x1="-87.98" y1="81.29" x2="-87.96" y2="81.27" gradientTransform="matrix(-111, 0, 0, 124, -9747.81, -10073.31)" gradientUnits="userSpaceOnUse"><stop offset="0" stop-color="#801021"/><stop offset="1" stop-color="#9c1f30"/></linearGradient><linearGradient id="f" x1="-92.09" y1="81.74" x2="-92.06" y2="81.71" gradientTransform="matrix(-171, 0, 0, 111, -15744.96, -9071.04)" gradientUnits="userSpaceOnUse"><stop offset="0" stop-color="#c4384a"/><stop offset="1" stop-color="#a22335"/></linearGradient><linearGradient id="g" x1="-86.7" y1="85.02" x2="-86.68" y2="85" gradientTransform="matrix(-149, 0, 0, 167, -12895.96, -14192.75)" gradientUnits="userSpaceOnUse"><stop offset="0" stop-color="#d14052"/><stop offset="1" stop-color="#ba3244"/></linearGradient><linearGradient id="h" x1="-93.27" y1="82.26" x2="-93.25" y2="82.24" gradientTransform="matrix(-139, 0, 0, 139, -12963.96, -11427.43)" gradientUnits="userSpaceOnUse"><stop offset="0" stop-color="#a22335"/><stop offset="1" stop-color="#a22335"/></linearGradient><linearGradient id="i" x1="-87.26" y1="85.01" x2="-87.24" y2="84.99" gradientTransform="matrix(-100, 0, 0, 167, -8705.92, -14192.75)" gradientUnits="userSpaceOnUse"><stop offset="0" stop-color="#f15668"/><stop offset="1" stop-color="#b83042"/></linearGradient><linearGradient id="j" x1="-88.27" y1="83.92" x2="-88.25" y2="83.9" gradientTransform="matrix(-79, 0, 0, 149, -6954.92, -12499.26)" gradientUnits="userSpaceOnUse"><stop offset="0" stop-color="#941b2c"/><stop offset="1" stop-color="#c03546"/></linearGradient><linearGradient id="k" x1="-88.29" y1="79.69" x2="-88.27" y2="79.67" gradientTransform="matrix(-96, 0, 0, 102, -8457.92, -8124.3)" gradientUnits="userSpaceOnUse"><stop offset="0" stop-color="#ad293b"/><stop offset="1" stop-color="#cb3c4d"/></linearGradient><linearGradient id="l" x1="-91.41" y1="75.5" x2="-91.39" y2="75.48" gradientTransform="matrix(-187, 0, 0, 89, -17091.96, -6712.22)" xlink:href="#h"/><linearGradient id="m" x1="-89.09" y1="78.98" x2="-89.07" y2="78.96" gradientTransform="matrix(-104, 0, 0, 104, -9249.81, -8208.46)" gradientUnits="userSpaceOnUse"><stop offset="0" stop-color="#9e2132"/><stop offset="1" stop-color="#991e30"/></linearGradient><linearGradient id="n" x1="-92.36" y1="86.43" x2="-92.34" y2="86.41" gradientTransform="matrix(-120, 0, 0, 197, -11077.8, -17022.23)" gradientUnits="userSpaceOnUse"><stop offset="0" stop-color="#ffa293"/><stop offset="1" stop-color="#f35769"/></linearGradient><linearGradient id="o" x1="-88.43" y1="84.48" x2="-88.4" y2="84.46" gradientTransform="matrix(-303, 0, 0, 157, -26782.68, -13258.79)" gradientUnits="userSpaceOnUse"><stop offset="0" stop-color="#ff8f87"/><stop offset="1" stop-color="#ff6e76"/></linearGradient><linearGradient id="p" x1="-92.09" y1="86.43" x2="-92.07" y2="86.41" gradientTransform="matrix(-143, 0, 0, 197, -13165.85, -17022.23)" gradientUnits="userSpaceOnUse"><stop offset="0" stop-color="#b22d3f"/><stop offset="1" stop-color="#d14052"/></linearGradient><linearGradient id="q" x1="-93.91" y1="84.59" x2="-93.89" y2="84.56" gradientTransform="matrix(-110, 0, 0, 148, -10327.81, -12515.18)" gradientUnits="userSpaceOnUse"><stop offset="0" stop-color="#ff6173"/><stop offset="1" stop-color="#bf3445"/></linearGradient><linearGradient id="r" x1="-92.46" y1="84.58" x2="-92.45" y2="84.56" gradientTransform="matrix(-159, 0, 0, 148, -14700.96, -12515.18)" gradientUnits="userSpaceOnUse"><stop offset="0" stop-color="#bf3445"/><stop offset="1" stop-color="#a22335"/></linearGradient><linearGradient id="s" x1="-92.46" y1="83.24" x2="-92.45" y2="83.23" gradientTransform="matrix(-159, 0, 0, 139, -14700.96, -11566.43)" gradientUnits="userSpaceOnUse"><stop offset="0" stop-color="#a32436"/><stop offset="1" stop-color="#a22335"/></linearGradient><linearGradient id="t" x1="-92.26" y1="86.35" x2="-92.24" y2="86.33" gradientTransform="matrix(-165, 0, 0, 163, -15222.96, -14074.42)" gradientUnits="userSpaceOnUse"><stop offset="0" stop-color="#ca3b4c"/><stop offset="1" stop-color="#991e30"/></linearGradient><linearGradient id="u" x1="-86.7" y1="86.14" x2="-86.68" y2="86.12" gradientTransform="matrix(-149, 0, 0, 203, -12895.84, -17479.73)" gradientUnits="userSpaceOnUse"><stop offset="0" stop-color="#a62536"/><stop offset="1" stop-color="#7a0e20"/></linearGradient><linearGradient id="v" x1="-87.75" y1="77.96" x2="-87.73" y2="77.94" gradientTransform="matrix(-63, 0, 0, 100, -5508.9, -7789.2)" gradientUnits="userSpaceOnUse"><stop offset="0" stop-color="#7e0f21"/><stop offset="1" stop-color="#6c081a"/></linearGradient><linearGradient id="w" x1="-91.11" y1="82.98" x2="-91.09" y2="82.96" gradientTransform="matrix(-162, 0, 0, 149, -14754.96, -12357.26)" gradientUnits="userSpaceOnUse"><stop offset="0" stop-color="#a52435"/><stop offset="1" stop-color="#9c1f30"/></linearGradient><linearGradient id="x" x1="-87.72" y1="83.07" x2="-87.7" y2="83.05" gradientTransform="matrix(-393, 0, 0, 148, -34458.66, -12288.05)" gradientUnits="userSpaceOnUse"><stop offset="0" stop-color="#8c1729"/><stop offset="1" stop-color="#9a1e2f"/></linearGradient><linearGradient id="y" x1="-87.9" y1="86.78" x2="-87.88" y2="86.76" gradientTransform="matrix(-355, 0, 0, 223, -31190.67, -19344.26)" gradientUnits="userSpaceOnUse"><stop offset="0" stop-color="#b22d3f"/><stop offset="1" stop-color="#b93143"/></linearGradient><linearGradient id="z" x1="-88.43" y1="86.78" x2="-88.41" y2="86.75" gradientTransform="matrix(-303, 0, 0, 223, -26782.68, -19344.26)" gradientUnits="userSpaceOnUse"><stop offset="0" stop-color="#f4586a"/><stop offset="1" stop-color="#a32436"/></linearGradient><linearGradient id="aa" x1="-87.43" y1="70.1" x2="-87.41" y2="70.08" gradientTransform="matrix(-112, 0, 0, 69, -9771.98, -4829.57)" gradientUnits="userSpaceOnUse"><stop offset="0" stop-color="#640517"/><stop offset="1" stop-color="#660516"/></linearGradient><linearGradient id="ab" x1="-87.62" y1="74.84" x2="-87.6" y2="74.82" gradientTransform="matrix(-177, 0, 0, 86, -15489.96, -6428.98)" gradientUnits="userSpaceOnUse"><stop offset="0" stop-color="#6e091a"/><stop offset="1" stop-color="#730a1c"/></linearGradient><linearGradient id="ac" x1="-87.31" y1="74.84" x2="-87.28" y2="74.81" gradientTransform="matrix(-521, 0, 0, 86, -45466.88, -6428.85)" gradientUnits="userSpaceOnUse"><stop offset="0" stop-color="#811122"/><stop offset="1" stop-color="#7a0e20"/></linearGradient><linearGradient id="ad" x1="-86.37" y1="86.85" x2="-86.35" y2="86.83" gradientTransform="matrix(-136, 0, 0, 226, -11723.85, -19620.64)" gradientUnits="userSpaceOnUse"><stop offset="0" stop-color="#961c2d"/><stop offset="1" stop-color="#5f0315"/></linearGradient><linearGradient id="ae" x1="-85.75" y1="80.23" x2="-85.73" y2="80.21" gradientTransform="matrix(-322, 0, 0, 118, -27583.68, -9459.57)" gradientUnits="userSpaceOnUse"><stop offset="0" stop-color="#630416"/><stop offset="1" stop-color="#620416"/></linearGradient><linearGradient id="af" x1="-85.58" y1="85.88" x2="-85.56" y2="85.86" gradientTransform="matrix(-234, 0, 0, 179, -19997.72, -15367.61)" gradientUnits="userSpaceOnUse"><stop offset="0" stop-color="#c6394c"/><stop offset="1" stop-color="#c73a4d"/></linearGradient><linearGradient id="ag" x1="-85.36" y1="84.41" x2="-85.35" y2="84.39" gradientTransform="matrix(-129, 0, 0, 169, -10985.96, -14257.91)" gradientUnits="userSpaceOnUse"><stop offset="0" stop-color="#660516"/><stop offset="1" stop-color="#6d0819"/></linearGradient><linearGradient id="ah" x1="-85.68" y1="86.85" x2="-85.66" y2="86.83" gradientTransform="matrix(-130, 0, 0, 226, -11112.85, -19620.64)" gradientUnits="userSpaceOnUse"><stop offset="0" stop-color="#640517"/><stop offset="1" stop-color="#a62536"/></linearGradient><linearGradient id="ai" x1="-85.23" y1="75.49" x2="-85.2" y2="75.47" gradientTransform="matrix(-97, 0, 0, 79, -8241.98, -5959.4)" gradientUnits="userSpaceOnUse"><stop offset="0" stop-color="#b22d3f"/><stop offset="1" stop-color="#e24c5e"/></linearGradient><linearGradient id="aj" x1="-85.68" y1="71.48" x2="-85.65" y2="71.46" gradientTransform="matrix(-130, 0, 0, 65, -11112.96, -4642.24)" gradientUnits="userSpaceOnUse"><stop offset="0" stop-color="#ae2a3c"/><stop offset="1" stop-color="#dc485a"/></linearGradient><linearGradient id="ak" x1="-86.22" y1="68.99" x2="-86.2" y2="68.97" gradientTransform="matrix(-132, 0, 0, 56, -11357.96, -3860.59)" gradientUnits="userSpaceOnUse"><stop offset="0" stop-color="#f75a6c"/><stop offset="1" stop-color="#fd5f71"/></linearGradient><linearGradient id="al" x1="-86.27" y1="72" x2="-86.25" y2="71.98" gradientTransform="matrix(-106, 0, 0, 64, -9121.98, -4605.22)" gradientUnits="userSpaceOnUse"><stop offset="0" stop-color="#eb5265"/><stop offset="1" stop-color="#fa5d70"/></linearGradient><linearGradient id="am" x1="-94.44" y1="82.99" x2="-94.41" y2="82.96" gradientTransform="matrix(-98, 0, 0, 149, -9250.92, -12357.26)" gradientUnits="userSpaceOnUse"><stop offset="0" stop-color="#a72637"/><stop offset="1" stop-color="#a32436"/></linearGradient><linearGradient id="an" x1="-92.09" y1="81.48" x2="-92.07" y2="81.46" gradientTransform="matrix(-143, 0, 0, 121, -13165.96, -9854.06)" gradientUnits="userSpaceOnUse"><stop offset="0" stop-color="#a92739"/><stop offset="1" stop-color="#a62536"/></linearGradient><linearGradient id="ao" x1="-101.86" y1="81.46" x2="-101.84" y2="81.44" gradientTransform="matrix(-55, 0, 0, 131, -5600.84, -10663.77)" gradientUnits="userSpaceOnUse"><stop offset="0" stop-color="#a22335"/><stop offset="1" stop-color="#a32436"/></linearGradient><linearGradient id="ap" x1="-98.84" y1="81.48" x2="-98.82" y2="81.46" gradientTransform="matrix(-69, 0, 0, 121, -6818.93, -9854.12)" gradientUnits="userSpaceOnUse"><stop offset="0" stop-color="#a62536"/><stop offset="1" stop-color="#a52435"/></linearGradient><linearGradient id="aq" x1="-98.85" y1="68.41" x2="-98.83" y2="68.39" gradientTransform="matrix(-69, 0, 0, 61, -6818.98, -4167.02)" gradientUnits="userSpaceOnUse"><stop offset="0" stop-color="#a32436"/><stop offset="1" stop-color="#a52435"/></linearGradient></defs><title>Asset 6</title><g class="a"><g class="b"><line class="c" x1="2.85" y1="1.23" x2="5.64" y2="1.93"/><polygon class="d" points="0 0.12 0 0.4 0.29 0.29 0 0.12"/><polygon class="e" points="14.26 5.78 18.38 6.07 15.79 3.97 14.26 5.78"/><polygon class="f" points="18.38 6.07 18.59 4.78 16.75 3.91 18.38 6.07"/><polygon class="g" points="15.79 3.97 18.38 6.07 16.75 3.91 15.79 3.97"/><polygon class="h" points="0 0.4 0 0.44 0.29 0.29 0 0.4"/><polygon class="i" points="18.59 4.78 22.06 2.99 20.36 1.88 18.59 4.78"/><polygon class="j" points="0 5 0 5.8 0.22 5.71 0 5"/><polygon class="k" points="18.03 2.19 18.59 4.78 20.36 1.88 18.03 2.19"/><polygon class="l" points="16.75 3.91 18.59 4.78 18.03 2.19 16.75 3.91"/><polygon class="m" points="16.75 3.91 18.03 2.19 15.79 3.97 16.75 3.91"/><polygon class="n" points="0 5.8 0 6.09 0.49 6.09 0.22 5.71 0 5.8"/><polygon class="o" points="13.37 4.25 14.26 5.78 15.79 3.97 13.37 4.25"/><polygon class="p" points="2.85 1.23 3.62 4.66 5.64 1.93 2.85 1.23"/><polygon class="q" points="3.62 4.66 10.67 2.94 5.64 1.93 3.62 4.66"/><polygon class="r" points="0.29 2.87 3.62 4.66 2.85 1.23 0.29 2.87"/><polygon class="s" points="0.29 0.29 0.29 2.87 2.85 1.23 0.29 0.29"/><polygon class="t" points="0.29 0.29 0 0.44 0 2.82 0.29 2.87 0.29 0.29"/><polygon class="u" points="0 2.82 0 4.16 0.29 2.87 0 2.82"/><polygon class="v" points="0 0 0 0.12 0.29 0.29 0 0"/><polygon class="w" points="18.59 4.78 19.53 6.09 20.12 6.09 22.06 2.99 18.59 4.78"/><polygon class="x" points="18.38 6.07 18.42 6.09 19.53 6.09 18.59 4.78 18.38 6.07"/><polygon class="y" points="2.37 6.09 4.6 6.09 3.62 4.66 2.37 6.09"/><polygon class="z" points="13.37 4.25 7.47 6.09 11.55 6.09 14.26 5.78 13.37 4.25"/><polygon class="aa" points="10.67 2.94 6.16 6.09 7.47 6.09 13.37 4.25 10.67 2.94"/><polygon class="ab" points="3.62 4.66 4.6 6.09 6.16 6.09 10.67 2.94 3.62 4.66"/><polygon class="ac" points="18.37 6.09 18.42 6.09 18.38 6.07 18.37 6.09"/><polygon class="ad" points="14.26 5.78 14.87 6.09 18.37 6.09 18.38 6.07 14.26 5.78"/><polygon class="ae" points="11.55 6.09 14.87 6.09 14.26 5.78 11.55 6.09"/><polygon class="af" points="20.12 6.09 22.81 6.09 22.06 2.99 20.12 6.09"/><polygon class="ag" points="25 6.09 25 5.87 24.59 6.09 25 6.09"/><polygon class="ah" points="25 3.91 25 2.11 23.43 2.61 25 3.91"/><polygon class="ai" points="24.59 6.09 25 5.87 25 4.1 23.6 6.09 24.59 6.09"/><polygon class="aj" points="22.81 6.09 23.6 6.09 25 4.1 25 3.96 22.06 2.99 22.81 6.09"/><polygon class="ak" points="22.82 2.85 25 3.94 25 3.91 23.43 2.61 22.82 2.85"/><polygon class="al" points="22.06 2.99 25 3.96 25 3.94 22.82 2.85 22.06 2.99"/><polygon class="am" points="22.82 2.85 23.43 2.61 20.36 1.88 22.82 2.85"/><polygon class="an" points="22.06 2.99 22.82 2.85 20.36 1.88 22.06 2.99"/><polygon class="ao" points="1.5 4.98 1.42 6.09 2.37 6.09 3.62 4.66 1.5 4.98"/><polygon class="ap" points="1.5 4.98 3.62 4.66 0.29 2.87 1.5 4.98"/><polygon class="aq" points="0.22 5.71 0.49 6.09 1.42 6.09 1.5 4.98 0.22 5.71"/><polygon class="ar" points="0.29 2.87 0 4.16 0 4.67 1.5 4.98 0.29 2.87"/><polygon class="as" points="1.5 4.98 0 4.67 0 5 0.22 5.71 1.5 4.98"/></g></g></svg>