<svg xmlns="http://www.w3.org/2000/svg" viewBox="0 0 485.86 345.5">
  <defs>
    <style>
      .cls-1{fill:#e9007b;}.cls-2{fill:none;stroke:#3B436C;stroke-miterlimit:10;stroke-width:2px;}.cls-3{fill:#0cf886;}.cls-4{fill:#F2F5FE;}.cls-5{fill:#e9007b;}
    </style>
  </defs>
  <title>Asset 1</title>
  <g id="Layer_2" data-name="Layer 2">
    <g id="Layer_1-2" data-name="Layer 1">
      <circle class="cls-1" cx="415.27" cy="178.7" r="28.15"/>
      <circle class="cls-2" cx="418.58" cy="156.35" r="28.15"/>
      <circle class="cls-3" cx="43.65" cy="105.03" r="43.08" transform="translate(-66.95 131.53) rotate(-80.91)"/>
      <circle class="cls-2" cx="37.03" cy="124.46" r="36.03" transform="translate(-92.64 131.42) rotate(-76.51)"/>
      <circle class="cls-4" cx="405.42" cy="20.99" r="1.36"/>
      <circle class="cls-4" cx="413.98" cy="20.99" r="1.36"/>
      <circle class="cls-4" cx="422.54" cy="20.99" r="1.36"/>
      <circle class="cls-4" cx="431.09" cy="20.99" r="1.36"/>
      <circle class="cls-4" cx="439.65" cy="20.99" r="1.36"/>
      <circle class="cls-4" cx="448.2" cy="20.99" r="1.36"/>
      <circle class="cls-4" cx="456.76" cy="20.99" r="1.36"/>
      <circle class="cls-4" cx="405.42" cy="28.43" r="1.36"/>
      <circle class="cls-4" cx="413.98" cy="28.43" r="1.36"/>
      <circle class="cls-4" cx="422.54" cy="28.43" r="1.36"/>
      <circle class="cls-4" cx="431.09" cy="28.43" r="1.36"/>
      <circle class="cls-4" cx="439.65" cy="28.43" r="1.36"/>
      <circle class="cls-4" cx="448.2" cy="28.43" r="1.36"/>
      <circle class="cls-4" cx="456.76" cy="28.43" r="1.36"/>
      <circle class="cls-4" cx="405.42" cy="35.88" r="1.36"/>
      <circle class="cls-4" cx="413.98" cy="35.88" r="1.36"/>
      <circle class="cls-4" cx="422.54" cy="35.88" r="1.36"/>
      <circle class="cls-4" cx="431.09" cy="35.88" r="1.36"/>
      <circle class="cls-4" cx="439.65" cy="35.88" r="1.36"/>
      <circle class="cls-4" cx="448.2" cy="35.88" r="1.36"/>
      <circle class="cls-4" cx="456.76" cy="35.88" r="1.36"/>
      <circle class="cls-4" cx="405.42" cy="43.32" r="1.36"/>
      <circle class="cls-4" cx="413.98" cy="43.32" r="1.36"/>
      <circle class="cls-4" cx="422.54" cy="43.32" r="1.36"/>
      <circle class="cls-4" cx="431.09" cy="43.32" r="1.36"/>
      <circle class="cls-4" cx="439.65" cy="43.32" r="1.36"/>
      <circle class="cls-4" cx="448.2" cy="43.32" r="1.36"/>
      <circle class="cls-4" cx="456.76" cy="43.32" r="1.36"/>
      <circle class="cls-4" cx="405.42" cy="50.76" r="1.36"/>
      <circle class="cls-4" cx="413.98" cy="50.76" r="1.36"/>
      <circle class="cls-4" cx="422.54" cy="50.76" r="1.36"/>
      <circle class="cls-4" cx="431.09" cy="50.76" r="1.36"/>
      <circle class="cls-4" cx="439.65" cy="50.76" r="1.36"/>
      <circle class="cls-4" cx="448.2" cy="50.76" r="1.36"/>
      <circle class="cls-4" cx="456.76" cy="50.76" r="1.36"/>
      <circle class="cls-4" cx="405.42" cy="58.21" r="1.36"/>
      <circle class="cls-4" cx="413.98" cy="58.21" r="1.36"/>
      <circle class="cls-4" cx="422.54" cy="58.21" r="1.36"/>
      <circle class="cls-4" cx="431.09" cy="58.21" r="1.36"/>
      <circle class="cls-4" cx="439.65" cy="58.21" r="1.36"/>
      <circle class="cls-4" cx="448.2" cy="58.21" r="1.36"/>
      <circle class="cls-4" cx="456.76" cy="58.21" r="1.36"/>
      <circle class="cls-4" cx="405.42" cy="65.65" r="1.36"/>
      <circle class="cls-4" cx="413.98" cy="65.65" r="1.36"/>
      <circle class="cls-4" cx="422.54" cy="65.65" r="1.36"/>
      <circle class="cls-4" cx="431.09" cy="65.65" r="1.36"/>
      <circle class="cls-4" cx="439.65" cy="65.65" r="1.36"/>
      <circle class="cls-4" cx="448.2" cy="65.65" r="1.36"/>
      <circle class="cls-4" cx="456.76" cy="65.65" r="1.36"/>
      <circle class="cls-4" cx="129.38" cy="283.11" r="1.36"/>
      <path class="cls-4" d="M139.29,283.11a1.36,1.36,0,1,1-1.36-1.36A1.35,1.35,0,0,1,139.29,283.11Z"/>
      <circle class="cls-4" cx="146.49" cy="283.11" r="1.36"/>
      <circle class="cls-4" cx="155.04" cy="283.11" r="1.36"/>
      <circle class="cls-4" cx="163.6" cy="283.11" r="1.36"/>
      <circle class="cls-4" cx="172.16" cy="283.11" r="1.36"/>
      <circle class="cls-4" cx="180.71" cy="283.11" r="1.36"/>
      <circle class="cls-4" cx="129.38" cy="290.55" r="1.36"/>
      <path class="cls-4" d="M139.29,290.55a1.36,1.36,0,1,1-1.36-1.36A1.36,1.36,0,0,1,139.29,290.55Z"/>
      <circle class="cls-4" cx="146.49" cy="290.55" r="1.36"/>
      <circle class="cls-4" cx="155.04" cy="290.55" r="1.36"/>
      <circle class="cls-4" cx="163.6" cy="290.55" r="1.36"/>
      <circle class="cls-4" cx="172.16" cy="290.55" r="1.36"/>
      <circle class="cls-4" cx="180.71" cy="290.55" r="1.36"/>
      <circle class="cls-4" cx="129.38" cy="297.99" r="1.36"/>
      <path class="cls-4" d="M139.29,298a1.36,1.36,0,1,1-1.36-1.36A1.36,1.36,0,0,1,139.29,298Z"/>
      <circle class="cls-4" cx="146.49" cy="297.99" r="1.36"/>
      <circle class="cls-4" cx="155.04" cy="297.99" r="1.36"/>
      <circle class="cls-4" cx="163.6" cy="297.99" r="1.36"/>
      <circle class="cls-4" cx="172.16" cy="297.99" r="1.36"/>
      <circle class="cls-4" cx="180.71" cy="297.99" r="1.36"/>
      <circle class="cls-4" cx="129.38" cy="305.44" r="1.36"/>
      <path class="cls-4" d="M139.29,305.44a1.36,1.36,0,1,1-1.36-1.36A1.35,1.35,0,0,1,139.29,305.44Z"/>
      <circle class="cls-4" cx="146.49" cy="305.44" r="1.36"/>
      <circle class="cls-4" cx="155.04" cy="305.44" r="1.36"/>
      <circle class="cls-4" cx="163.6" cy="305.44" r="1.36"/>
      <circle class="cls-4" cx="172.16" cy="305.44" r="1.36"/>
      <circle class="cls-4" cx="180.71" cy="305.44" r="1.36"/>
      <circle class="cls-4" cx="129.38" cy="312.88" r="1.36"/>
      <path class="cls-4" d="M139.29,312.88a1.36,1.36,0,1,1-1.36-1.36A1.36,1.36,0,0,1,139.29,312.88Z"/>
      <circle class="cls-4" cx="146.49" cy="312.88" r="1.36"/>
      <circle class="cls-4" cx="155.04" cy="312.88" r="1.36"/>
      <circle class="cls-4" cx="163.6" cy="312.88" r="1.36"/>
      <circle class="cls-4" cx="172.16" cy="312.88" r="1.36"/>
      <circle class="cls-4" cx="180.71" cy="312.88" r="1.36"/>
      <circle class="cls-4" cx="129.38" cy="320.32" r="1.36"/>
      <path class="cls-4" d="M139.29,320.32a1.36,1.36,0,1,1-1.36-1.36A1.36,1.36,0,0,1,139.29,320.32Z"/>
      <circle class="cls-4" cx="146.49" cy="320.32" r="1.36"/>
      <circle class="cls-4" cx="155.04" cy="320.32" r="1.36"/>
      <circle class="cls-4" cx="163.6" cy="320.32" r="1.36"/>
      <circle class="cls-4" cx="172.16" cy="320.32" r="1.36"/>
      <circle class="cls-4" cx="180.71" cy="320.32" r="1.36"/>
      <circle class="cls-4" cx="129.38" cy="327.77" r="1.36"/>
      <path class="cls-4" d="M139.29,327.77a1.36,1.36,0,1,1-1.36-1.36A1.35,1.35,0,0,1,139.29,327.77Z"/>
      <circle class="cls-4" cx="146.49" cy="327.77" r="1.36"/>
      <circle class="cls-4" cx="155.04" cy="327.77" r="1.36"/>
      <circle class="cls-4" cx="163.6" cy="327.77" r="1.36"/>
      <circle class="cls-4" cx="172.16" cy="327.77" r="1.36"/>
      <circle class="cls-4" cx="180.71" cy="327.77" r="1.36"/>
      <polygon class="cls-2" points="168.78 65.25 160.44 15.47 207.72 33.14 168.78 65.25"/>
      <polygon class="cls-1" points="280.21 297.86 323.13 291.34 307.32 331.77 280.21 297.86"/>
      <polygon class="cls-2" points="268.43 292.21 311.36 285.69 295.55 326.12 268.43 292.21"/>
      <polygon class="cls-4" points="175.36 45.8 168.19 2.98 208.86 18.18 175.36 45.8"/>
      <circle class="cls-5" cx="116.51" cy="254.87" r="6.68"/>
      <circle class="cls-1" cx="412.52" cy="223.91" r="6.68"/>
      <circle class="cls-1" cx="213.42" cy="68.07" r="6.68"/>
      <circle class="cls-3" cx="54.36" cy="49.81" r="6.68"/>
      <path class="cls-4"
            d="M28.09,227.06a6,6,0,0,1-3.45-10.91l49.5-34.66A6,6,0,0,1,81,191.32L31.52,226A6,6,0,0,1,28.09,227.06Z"/>
      <path class="cls-4"
            d="M6.1,268a6,6,0,0,1-3.45-10.92l49.5-34.66A6,6,0,0,1,59,232.29L9.54,267A5.94,5.94,0,0,1,6.1,268Z"/>
      <path class="cls-4"
            d="M308.43,62.15A6,6,0,0,1,305,51.24l49.49-34.66a6,6,0,1,1,6.88,9.83L311.87,61.07A6,6,0,0,1,308.43,62.15Z"/>
      <path class="cls-4"
            d="M361.4,46.66A6,6,0,0,1,358,35.75L407.45,1.09a6,6,0,1,1,6.88,9.83L364.84,45.58A6,6,0,0,1,361.4,46.66Z"/>
      <path class="cls-4"
            d="M366.9,345.5a6,6,0,0,1-3.44-10.92L413,299.92a6,6,0,1,1,6.88,9.83l-49.49,34.66A5.94,5.94,0,0,1,366.9,345.5Z"/>
      <path class="cls-4"
            d="M430.37,327a6,6,0,0,1-3.45-10.92l49.49-34.66a6,6,0,1,1,6.89,9.83l-49.5,34.66A5.89,5.89,0,0,1,430.37,327Z"/>
    </g>
  </g>
</svg>
