<svg xmlns="http://www.w3.org/2000/svg" xmlns:xlink="http://www.w3.org/1999/xlink" viewBox="0 0 537.82 390.63">
  <defs>
    <style>
      .cls-1{isolation:isolate;}.cls-2{fill:#fff;}.cls-3{mix-blend-mode:color-dodge;}.cls-4{fill:url(#linear-gradient);}.cls-5{fill:url(#linear-gradient-2);}.cls-6{opacity:0.8;}.cls-10,.cls-11,.cls-12,.cls-7,.cls-8,.cls-9{mix-blend-mode:color-burn;}.cls-7{fill:url(#radial-gradient);}.cls-8{fill:url(#radial-gradient-2);}.cls-9{fill:url(#radial-gradient-3);}.cls-10{fill:url(#radial-gradient-4);}.cls-11{fill:url(#radial-gradient-5);}.cls-12{fill:url(#radial-gradient-6);}
    </style>
    <linearGradient id="linear-gradient" x1="358" y1="88.09" x2="475" y2="88.09" gradientUnits="userSpaceOnUse">
      <stop offset="0" stop-color="#918d60"/>
      <stop offset="0.38" stop-color="#555338"/>
      <stop offset="0.8" stop-color="#181710"/>
      <stop offset="1"/>
    </linearGradient>
    <linearGradient id="linear-gradient-2" x1="0" y1="276.09" x2="119.67" y2="276.09" xlink:href="#linear-gradient"/>
    <radialGradient id="radial-gradient" cx="-1939.28" cy="7561.01" r="54.76"
                    gradientTransform="translate(558.85 -3677.2) rotate(-45) scale(1.53 0.34)"
                    gradientUnits="userSpaceOnUse">
      <stop offset="0" stop-color="#cfcfcf"/>
      <stop offset="0.46" stop-color="#e7e7e7"/>
      <stop offset="1" stop-color="#fff"/>
    </radialGradient>
    <radialGradient id="radial-gradient-2" cx="-1881.47" cy="7041.08" r="53.11" xlink:href="#radial-gradient"/>
    <radialGradient id="radial-gradient-3" cx="-1998.61" cy="7338.01" r="106.88" xlink:href="#radial-gradient"/>
    <radialGradient id="radial-gradient-4" cx="-1836.73" cy="7752.55" r="105.06" xlink:href="#radial-gradient"/>
    <radialGradient id="radial-gradient-5" cx="-2025.12" cy="7135.34" r="75.71" xlink:href="#radial-gradient"/>
    <radialGradient id="radial-gradient-6" cx="-1909.85" cy="7872.53" r="106.39" xlink:href="#radial-gradient"/>
  </defs>
  <g class="cls-1">
    <g id="Layer_2" data-name="Layer 2">
      <g id="Layer_1-2" data-name="Layer 1">
        <path class="cls-2" d="M374.33,184.42h-11.1a.5.5,0,0,1,0-1h11.1a.5.5,0,0,1,0,1Z"/>
        <path class="cls-2"
              d="M374.33,194.77h-11.1a.5.5,0,0,1-.5-.5.5.5,0,0,1,.5-.5h11.1a.5.5,0,0,1,.5.5A.5.5,0,0,1,374.33,194.77Z"/>
        <path class="cls-2"
              d="M374.33,205.13h-11.1a.5.5,0,0,1-.5-.5.5.5,0,0,1,.5-.5h11.1a.5.5,0,0,1,.5.5A.5.5,0,0,1,374.33,205.13Z"/>
        <path class="cls-2" d="M374.33,215.48h-11.1a.5.5,0,0,1,0-1h11.1a.5.5,0,0,1,0,1Z"/>
        <path class="cls-2"
              d="M374.33,225.83h-11.1a.5.5,0,0,1-.5-.5.5.5,0,0,1,.5-.5h11.1a.5.5,0,0,1,.5.5A.5.5,0,0,1,374.33,225.83Z"/>
        <polygon class="cls-2"
                 points="150.58 155.99 147.13 152.54 143.69 155.99 141.56 153.87 147.13 148.3 152.7 153.87 150.58 155.99"/>
        <g class="cls-3">
          <path class="cls-4"
                d="M358.5,146.59a.47.47,0,0,1-.35-.15.5.5,0,0,1,0-.71l116-116a.5.5,0,0,1,.7,0,.5.5,0,0,1,0,.71l-116,116A.47.47,0,0,1,358.5,146.59Z"/>
        </g>
        <path class="cls-2"
              d="M181.5,277.29a.36.36,0,0,1-.27-.11.39.39,0,0,1,0-.53L213.9,244a.37.37,0,1,1,.53.53l-32.66,32.66A.36.36,0,0,1,181.5,277.29Z"/>
        <g class="cls-3">
          <path class="cls-5"
                d="M.5,335.92a.47.47,0,0,1-.35-.15.48.48,0,0,1,0-.7L118.81,216.4a.5.5,0,1,1,.71.71L.85,335.77A.47.47,0,0,1,.5,335.92Z"/>
        </g>
        <path class="cls-2"
              d="M272.5,85.13a.4.4,0,0,1-.27-.11.39.39,0,0,1,0-.53l39.34-39.34a.37.37,0,1,1,.53.53L272.77,85A.4.4,0,0,1,272.5,85.13Z"/>
        <path class="cls-2"
              d="M243.17,388.46a.39.39,0,0,1-.27-.11.37.37,0,0,1,0-.53L418.23,212.49a.38.38,0,0,1,.54,0,.39.39,0,0,1,0,.53L243.43,388.35A.38.38,0,0,1,243.17,388.46Z"/>
        <g class="cls-6">
          <path class="cls-7" d="M332.89,186.15c-13.17,2.78-39,21.17-65.1,47.23s-44.45,51.92-47.22,65.09Z"/>
          <path class="cls-8" d="M268.59,0c-12.77,2.69-37.87,20.53-63.14,45.8s-43.11,50.36-45.8,63.13Z"/>
          <path class="cls-9" d="M264.22,139.17c-25.7,5.41-76.18,41.3-127,92.16S50.43,332.67,45,358.37Z"/>
          <path class="cls-10" d="M537.82,65.74c-25.26,5.32-74.89,40.61-124.88,90.6S327.66,256,322.34,281.22Z"/>
          <path class="cls-11" d="M157.11,153.41c-18.2,3.83-54,29.26-90,65.28s-61.45,71.79-65.29,90Z"/>
          <path class="cls-12" d="M488.8,172.41c-25.59,5.39-75.85,41.12-126.47,91.75S276,365,270.58,390.63Z"/>
        </g>
      </g>
    </g>
  </g>
</svg>
