<svg xmlns="http://www.w3.org/2000/svg" xmlns:xlink="http://www.w3.org/1999/xlink" viewBox="0 0 639.24 384.55">
  <defs>
    <style>.cls-1 {
      fill: url(#linear-gradient);
      }

      .cls-2 {
      isolation: isolate;
      }

      .cls-3 {
      clip-path: url(#clip-path);
      }

      .cls-4 {
      opacity: 0.5;
      mix-blend-mode: color-dodge;
      fill: url(#linear-gradient-3);
      }

      .cls-5 {
      fill: url(#linear-gradient-4);
      }

      .cls-6 {
      fill: url(#linear-gradient-5);
      }

      .cls-7 {
      fill: url(#linear-gradient-6);
      }

      .cls-8 {
      fill: url(#linear-gradient-7);
      }

      .cls-9 {
      fill: url(#linear-gradient-8);
      }</style>
    <linearGradient id="linear-gradient" x1="318.07" y1="352.94" x2="433.41" y2="14.94"
                    gradientUnits="userSpaceOnUse">
      <stop offset="0" stop-color="#0c042e"/>
      <stop offset="0.33" stop-color="#221c3a"/>
      <stop offset="1" stop-color="#575757"/>
    </linearGradient>
    <linearGradient id="linear-gradient-3" x1="235.66" y1="46.28" x2="353.66" y2="247.28"
                    gradientUnits="userSpaceOnUse">
      <stop offset="0"/>
      <stop offset="0.23" stop-color="#050505"/>
      <stop offset="0.49" stop-color="#131313"/>
      <stop offset="0.77" stop-color="#292929"/>
      <stop offset="1" stop-color="#424242"/>
    </linearGradient>
    <linearGradient id="linear-gradient-4" x1="179.15" y1="393.42" x2="291.81" y2="585.34"
                    gradientTransform="matrix(0.97, -0.23, 0.23, 0.97, -144.87, -273.99)"
                    xlink:href="#linear-gradient"/>
    <linearGradient id="linear-gradient-5" x1="458.64" y1="250.13" x2="544.64" y2="358.8"
                    xlink:href="#linear-gradient"/>
    <linearGradient id="linear-gradient-6" x1="168.02" y1="271.25" x2="199.35" y2="326.59"
                    gradientTransform="matrix(1.29, 0.01, 0.01, 1.31, -29.24, -87.47)"
                    gradientUnits="userSpaceOnUse">
      <stop offset="0" stop-color="#fc9512"/>
      <stop offset="0.35" stop-color="#fd5f35"/>
      <stop offset="0.79" stop-color="#fe225c"/>
      <stop offset="1" stop-color="#ff0a6c"/>
    </linearGradient>
    <linearGradient id="linear-gradient-7" x1="509.43" y1="123.09" x2="434.1" y2="219.09"
                    xlink:href="#linear-gradient"/>
    <linearGradient id="linear-gradient-8" x1="605.47" y1="193.57" x2="558.31" y2="120.12"
                    gradientTransform="matrix(0.96, 0.03, 0.03, 0.98, -43.76, 35.18)"
                    xlink:href="#linear-gradient-6"/>
  </defs>
  <title>Asset 3</title>
  <g class="cls-2">
    <g id="Layer_2" data-name="Layer 2">
      <g id="Layer_1-2" data-name="Layer 1">
        <g class="cls-3">
          <path class="cls-4"
                d="M98.67,104.08c24.77-42,61-49.43,105.05-47.87,37.67,1.34,78.5,11.62,113.09-2.48S375,14,412.32,15.91c50.09,2.57,72.12,42.54,69.54,81.51-3.58,54-50.19,81-96.77,77.57-38.54-2.85-79.37-6.72-113.49,17.94-31.42,22.72-52.2,72.82-96.19,73.89C125.51,268,52.86,181.84,98.67,104.08Z"/>
          <path class="cls-5"
                d="M4.66,151.74c13.86-44.48,46-59.26,87.22-67.41,35.3-7,75.5-6.32,104.58-27S241.85,7.74,277,1.38C324.13-7.15,353.31,25.2,359.41,62c8.46,51-29,86.27-73,93.22-36.46,5.75-75.25,11.06-101.59,41.42-24.26,28-32.65,79.07-73.31,89.67C65.36,298.3-21,234,4.66,151.74Z"/>
          <path class="cls-6"
                d="M624.12,293.5c-22.94,27.75-66,19.45-99,31.27-38,13.62-68.43,36.63-106.29,54.75-36.74,17.58-98.45-11.86-55.83-73.17,16.79-24.15,32.73-41.51,43.87-70.24,12.41-32,20.52-60.82,52.13-75.64C538.86,123.05,686.94,217.47,624.12,293.5Z"/>
          <path class="cls-7"
                d="M271.56,245.82c24.87-25.15-3.93-50.46-36.09-21-21.94,20.08-33.41,50-51.94,72C166.45,317,145.08,308,123.3,316c-46.55,17.12,39.31,80.53,78.67,59.57,27.57-14.68,23.16-55,29.74-78.66C238.73,271.69,254.85,262.72,271.56,245.82Z"/>
          <path class="cls-8"
                d="M414.78,101.72c18.51-21.92,52.75-14.93,79.12-24.07,30.39-10.53,54.84-28.6,85.16-42.71,29.43-13.7,78.35,10.29,43.86,58.79-13.58,19.09-26.43,32.79-35.56,55.59-10.16,25.38-16.87,48.28-42.19,59.82C481.25,238.27,364.07,161.76,414.78,101.72Z"/>
          <path class="cls-9"
                d="M599.42,150.33C602.76,133.9,617,126.12,619,108.8c4.37-37.71-33.46-58-50.87-29.18-8.86,14.65-12.21,32.92-22.8,46.31-10.74,13.58-27,15.49-40.26,25.28-24.42,18-31.49,51.26-61.1,64.81-68.31,31.27-65.52,71.61-15.52,73.59,41.84,1.66,53.17-54.21,106.89-53.41C622.72,237.5,592.18,186.06,599.42,150.33Z"/>
        </g>
      </g>
    </g>
  </g>
</svg>
