<svg xmlns="http://www.w3.org/2000/svg" viewBox="0 0 129.38 105.08"><title>Hlavac Business</title><polygon points="14.69 59.48 55.65 59.48 70.28 59.48 70.28 44.33 14.69 44.33 14.69 43.35 14.69 35.38 14.69 0 0 0 0 105 14.69 105 14.69 68.44 14.69 60 14.69 59.48"/><path d="M114.44,50.48c6.4-4.35,10.67-12.3,10.67-23.1,0-16.65-10.67-27.3-30.58-27.3H55.65V35.37H71.06v-20H92.87c10.71,0,16.71,4.95,16.71,14.55s-6,14.4-16.71,14.4H55.65V59.48H96c11.62,0,17.9,4.65,17.9,15.15S107.57,89.78,96,89.78H71.06V68.43H55.65v36.65H96.9c21.33,0,32.48-10.5,32.48-28.5C129.38,62.93,123.38,54.08,114.44,50.48Z" transform="translate(0 0)"/></svg>
